<mxfile host="65bd71144e">
    <diagram id="bITaICjE9SxGqCD9AlLc" name="第 1 页">
        <mxGraphModel dx="2551" dy="2013" grid="0" gridSize="10" guides="1" tooltips="1" connect="1" arrows="1" fold="1" page="0" pageScale="1" pageWidth="827" pageHeight="1169" background="#FFFFFF" backgroundImage="{&quot;src&quot;:&quot;data:page/id,-ILC4vN3jUfRknQ8BKg5&quot;}" math="0" shadow="0">
            <root>
                <mxCell id="0"/>
                <mxCell id="1" parent="0"/>
                <mxCell id="2" value="" style="shape=image;verticalLabelPosition=bottom;labelBackgroundColor=default;verticalAlign=top;aspect=fixed;imageAspect=0;image=data:image/png,iVBORw0KGgoAAAANSUhEUgAAAfkAAADoCAIAAABjKQo5AAAAAXNSR0IArs4c6QAAIABJREFUeAHtvW1QG1ma5ztzd+fGzEbsjYmYe2Pv3bnTJxASoiXUEkiWEKgwiBdhIWFAwrQsgxGoEMZCrU4sLNPYspuXAMkyMmtTlHF1Fd3VpYpeHOWLo8y4u0oxXpmpUdlFsFEdbHTtfKn9Vvupvrk/1d44mcpU6iWFBEpsjo9DYVKZeV6e/5P65dGTR+f5C4D/YQWwAlgBrADqCvwF6gZi+7ACWAGsAFYAYNbjiwArgBXACqCvAGY9+j7GFmIFsAJYAcx6fA1gBbACWAH0FcCsR9/H2EKsAFYAK4BZj68BrABWACuAvgKY9ej7GFuIFcAKYAUw6/E1gBXACmAF0FcAsx59H2MLsQJYAawAZj2+BrACWAGsAPoKYNaj72NsIVYAK4AVwKzH1wBWACuAFUBfAcx69H2MLcQKYAWwApj1+BrACmAFsALoK4BZj76PsYVYAawAVoBn1rctX//q5f1//eH+F9GTgmy1VSdnni189fL+3svIH6LNldkn8LJHSrxYffqBJkd/Dt6c3BG9/uz71T+9vPPFC7up4uAVve4lKzp+8zJyx/W6d7M0/RP0j/viI1phSWqr0K+H3XO1xdRVpp4LEIkl/86Sa6q6mIL4XKxAlgI8s55sr3zs2WpO1uvfXfjTd15Xt1TTrNQ3l2d1jqcdpWe9YHD0i5cLt1xKTbO8zSgV8dTxklVb7vx8dtF2oOoKZr2ge/DJ5x1Hdf/OaYvx7f/jq8//zZ+3/rabvq+3nRvbWRoYFgn6Lvp25nt7ynKWY3a+atZTHZEbNsKvF+uFjb3xJSKiF8g7HTtLYwEVo1ieDdFo3943XvI1ereXrbygqu0XcxvPV37eyi6uuzJAnz8008w+grcPpMArZf1PP7mz93nHkZOx9KyvvOrf++5i73EZzlc0v/PdAt+srwtd//rZq2S94v/c3vk325P/T7Mk9clQW507QVtfGTANeXcC5iY2cVJnMVuY9YwU6Ruarq0l+B1F2GpPLDk9VelHc78Tjfbt/kv32eoKhVTI+szLGly/Wov+bvG9RAbrgUgoqa5QNLc++CNmfW5Ji9tbFOtlGuIxGan4YfWrb2d/s1xPj9rKGydHN769s/fD6u6306FJOcuVAIDscb107PHNL79f/dMPMLxDvlbf8+w/rq/zDP7mm8juy/t/ennn2dfOn8pIWyuUY1H/k+/u7P1w/+vvFz56t5k1ypBalr2PYMfu731/88knHeQhyPpY1DLzORk++v7mx+82M1+QpTbLO1/f/Bqen1FVbl31oeln36/upQy5/yxaLwBAMHjxy5d+F9VDAEQu71cvLzmSNwOxZfnSk+9W//TD6tff33z0uEtP3ySKa73C8N53/sV3p798eecP0Y6Bd69/+fJO7BND0nzVyenPZ7+EWkWePO47ndyrJD5f+OJ7Rvb7//rDwhw1wM8jo6zeT2r19Xez78zaP2JiOBxFKl3OT7+NsDXZowf4gmbD3OfMJTR9a1JOj7hzy3uYvU1/+9//61+H1GlVSIwDiZkuUxloso0l/Ab2QbnOsOJ3x8P+nRARu9LbD/kFWR9zGTwXXLGQfyfkjg7p1MztQaTwjDjh/rB302PuYd1RclUFADuGUy7zEN74JUNb+iclra/MmxzjekHTKcvatDsOe+Xd9CZbFzb0xkIDw/SnEgBB3wUiPq6juiasbgheggYmFtzr53X1zOdN07UZ6OqpbYlc8SaW/IlZ+2iS3YK2LtvGDAwiJRbcG+MGE1OE7NKEHACdJRYeGE63Qnhm6bOnD6+kDdIBACTrT3cyZlEbwsb+6zetGtnpxSzWUydU6zHrMzQ74NtiWK9/d3bvm9GBbqmqWXnaY/G6pFSjUtfFZ99fn/NoNDq56ar36cuFRRtzVeRkfbKz5LjekH6hcNohdY0++yHyyQcdlm5lm6157OpJmulS+6zFMais08nbJi/GIImo1svb353d+3729mxze7fG5OoYd1FkkRIv7v/p5c3fhE426uTtV73PfqCL6Dp+833ko+WTjTrpW4N9H323+umyshAYkeP6UQuNbEgJbtaTAZ/rMy6lSifXDxqIq/U/oYwutvUKw3svYQ+l3YN/+GE19kG9tLnv0cvrhA4AoPS/uPP0seW0Uarpbp57cWf3WRctFwAqywb0UYbUnDLaP4nsfXvR1S3XGJsDzyJ/gnJRZbmKwKOnozf3ssf1qpPjoY7ebrmmWWn/4PrXLy85U93K6A/5VvL2e4md5zvs1+c3rbnOzNrXmoP1QGdev6BXAyA39EYHU4F4oca8GSY2hvQ9GllTrbrfpK2H9UHW74S96zZtk0zc1GzZDBNryetVPOzxxjyGnmqxXK6e8HgTfgNZBHBUxWJ9mXR43B2fNBYEegD7mh3DUTe2eFqVTTKxWqULXvXFnGr4UKFMOTfjW+8UJ7UQaVcWiJVW8gqu0EZmiKgdGqKu1Udu+DbPKZPPITRdW2Hv1mTvaK1UXiluqlPIqfJK42bYNdcsU0uk9bW60U5t6tYo0s5NWvorAJC3rBBmE3P/IwtC1scLZX2yq5WY9Ukl+PtTDOvbPljY+8ZJjxCZPonHn7Efdconv179Mu1JbPa4Plm2GNbDVnY/70hikWk8c0MZ+Gb1UYi8CVU03/t+9ZNQ8sJlnQhZv/esix7LK2e+Wf10GZ7WuDy793VfHX1qO7R3UE+/zfO3KNaLXBe//H7a382+HcK6i269wvDe9zdv2QCAlpL8pYMzAtvos5f+MRqjItfFr15Ok/cA0ojcrGfbx5JRBu8ov7ma5IfA5nyaYj1HEXJ3btazS5DdmOtm78reFinUam366yeFjQ5ysj67AbhH0OciEpMtKZYlTyNZP22kIA6A2HPJt3VeCQ9WGzfCzgn6axuAtwrXFDzCVRXF+rGARtrvcsf9BYOeg/VsO+r7XEzn286NMdtCvS2+YOsj1ZKbBhKBrjYayupuZ2LWkmQ0DMh4gw1ZgxoVNCpQW5ja7A7l3s49rk+eW2nF4/rcspVubzGsB7rmuReRvZc3P/nE7uwWJ6+NipO3v7v/p5erX9MvGDBJi8KXgvUV9be+pSGeab30p8vejW9ufvld5MvvIl//cP9Tku8Co/3Jy4VcKIExnGcfwEgL+U/u/3r1D+8qBaDc8Xj1X39IGfL1y/v/WlgUvijWAyB3RGe/ennn6bNRv0eZ/HJ0gNYh6xdmuiHrk/H3ipN3vrsZsoHq2ek//XB/j/YINOQHlhS5WZ9bRmC0f/pyYZEhsqzrYyaGAziKkLLmZr2qnoj6n3wLPfUlDLtlf71IeuWQfyR/77n1v//5n/+9qyBSSSeu+Dbtiqw2yXj9BWb4Lxj2+mJDkOjCVlvitj8R8jGvndveYAMAgKuqJOvXLrgSYSeMfhT+L9e4Xt5gjFwa25r3xma9MI7ExKOqjZshqn5Bn8sbcyU7bxpy7yylepsI+3fC9n5quAHH9Y5RVgyK7pq4x+6IhX1bk71TBkWO4/R5hf3FrC9MJ97OKor1sBflKlvX3GOIqo2QBn6QSNZ/+m59XbM89VKxB60lYv13uVn/Vuj63vfT04PU7Bc4IC2E9aw5lyzWf76698zSyDakWVwILPZnvce7m4rXQx0rm096P/DHXq5+8XkX+U2i3FFs63lZv/e912VkeaRZ+hMmxJSL9VwyZrOeiddzFiGv1lysF7s+v/P1186fUnOucnUj80InYzg7af/i+8VwjFf++s//7S/+1z//zX/q+FFmfbnfS6emuVmfmnPJZr09ER7wVEvVMuYllsCLnqsqkvVL/til3sgVIu6BcaRC/2WzXm6Ihoj1XqWc/JjBcT3DeiCd8Ps2+mSgXBuZ90YakyMa+Cz6irFNzvRWqpaJWDEcx2gqyp/WL2GVcthu21jwxS8Z9nuUnVYw6w1mfZYkR7ujaNYnu6cJTe99R0Wopd5nq189zjM7vnjWC090nOtrTRv8wFZ2HxvoUTCjEhyMp75GVDS/831yXA9khve+X92YzSoBMubhMKwnoyjfOg8wOz4H62EUZdpLR1HeWp79UzrrKQNE3YN/eDkbMMJ3MIZTVOvcrCdjOLPTZLWMUqkNVdfGSzj8Z/3LJ+MHL1d/M0nHcLoHY8kYDncRsl6S9V1p6sNhweonVIQNADIctO+4/gAxnIqf/H139/9177f/lj3bkmVr9iZ8hpm41JJ2wcGzyHF9LtaTMZyck+W5qmLF66saVmZ9GzZFodP2s1gPv1Uwo3Ig6Bvxpsb1AMg7HYmr5jZ9b2y2t4cec8lNjsR8Mp6TaT81rudgffLkqpZo2B2ET4IO/A+z/sDSlaZgEawvN121j7k0b+nE1c31449v7n3d9xbZCfhs9uXNj5YNJvKpqStkd6VRpmjWS4buffHiRWypm/1p+InH+8UPkY13O07DVk46ZzvayYFqGzlJ32kU/6RZM/bJ7O5LmvWg/PQHC3vfX7919WSbUdk+aPAmn4Jysh7Ap6OrsceWn9qUelu9/ard70mDFZfm2awHqo7fvFx98kFzo07a6IKPeRnWV7ss/smTbc3Sap3cEvJ/yQTWi22dm/UAyCdf3Nn9enR8UKPvrrd4LDOhk6lHHTDUs/qHD5rfUolVzfLqfWQUDzxOPptVGU/6n0X+lY7XcysPddLA71t+olv6E5X0LR3FHPnki9WvnlnadGJVtyH0IsJfDAeACsPf/o+seThcDhTWdm2Gieigvkcla9Ko+00NJsg+btYDcf+4NxGweRoVTUqFSa+fsCYfXXJUxWI9ABJd12bIHdEX8p0x17NZlXlzyR0xwEepbcbejQUfm/WgUr8WdK153ckHtpTNInVwxhfzGPtqZU0qZc8pw9Qp+mkDB+uFtfoJo7pNLpZXSttMtq2CQ09FzcNJeqT4eL3plw+fxu4M0UZweRbvZxQohvWnl6djcKYgnPL49MWoy0gPGgCgZkOSUxUjsRejTuqnD6quj16u7r2k5lbCjb3vL9qZSAIAXM9mhaaZ/++Lpx8R9BfQZG/LGyedH30DI/JwzuWLQQvlZ/jj25u75CzJ3yyfdERvPmKex1ZI7e9SsxvhnMtPowbyeSw36wGoNHbcIn/KC38B+41/jp5rxAiWcyMH6wGomxx9RE6s/PIbL+EZ/JQe1//E5fzk2ztfw2maq19+45/zpOYdFtd6PtYDoKonPmFmN7InyEILNJ5k37769tJ40lncMqrqp5PzU2c/CFnufEvPw8mjPABApplMloo8+SD5q+nKbssH3yTn5i56mue+2Xdcn1PvgnYW8WwW1qduNK6Qkw53wkTsiqUPxqfzsB6ActnwoGNzwbez5IvPutbsWuZrQa6q0lgPAKjvcsQXHB6mTC6T6nudibAPxtZv+3fgBpw8Q54oMtkGtoL+nTCx6TH2tFq2JtnzR0X9F4mdpcxhuFCmC3jIyaNhInbVEWS+I3Oy3rgegLMwoYEBR/CUjD30ytXf5L4DzcMp9tmsfPSDFy8+Gj+Rpx/4ULoCRbA+vSB+hxV4vRUokvWvtzHF9U7e5UjM0NNsiivK39l5YzjczeaeXy/sXvrsi99exKjnFi7rCGZ9liQZO8iwMvvHR6nt5OTOjAIlfftqWy+pKUddmfrvvvqv/3Zr6P9lfZE86i7s357csLFEDttvZ/6fa17Q/vWRZ4hHCWLrXPa0ogKL83RaSVn/1pX/HLuHAzhFuQqzvii58MnHSIEfDV79d/9j5y8LfkJ7jEzj6Gq5SC4RtxltW0GH57ULZJPr4Xh2/+je/aNz8TQ905/DEhhnnLA/hyeP732D10jglqnwI5j1hWuFzzyGCgh+pFL86LUe2pdOVKG+Nxb2J+ZdqVh86So/fE2iCo3mx+SrUlLIU2mpmD5ffOjJ/Yfv/fGvAbP++PsQW4AVwApgBfZToFDWNzY27ldVCY4fQStH0AScK4/lKuZyOBq5iukRPhcrgJoCmPW8ePRo4HUErRxBE0d2a+TF07hSrMAxUQCznhdHIYNIZAzhxc24UqzA8VEAs54XXyGDSGQMOZCbM35LdaA6mELs9euZna/DhvqacXn3zP29M7eWpPtPj3kdeoz7cBAFMOsPotq+ZZBBJDKGUC57PXMQHiilH8c1aFy33t+D4KZfxjMajlPTdpd1Rq2Y9WmSoPYGs54XjyKDSGQModz8muYgPEhKP47r1rhuvbOu1uor1clXxY85zkzfjVmfrgeC7zDreXEqMohExhDKzdw5CEVtnb3RAJlvL+jdvKhn8lIdRQ5CciXLIlP6cVy3xnXr8l15jlCMRu5YMwafW+/tWZdj7SODFenn5GK9RNJ713gzWaTj0mUpswCWqF09/uj0yt6Z1efmyWuyghYI5Ogw3n1UCmDW86I0MohExpCkmzlyEMKVyEJjK93aNqWsTacbbaXW+YLx+qPIQXiQlH4c1y0n6yXS7ss1TfoKmaaydca48rzFmPYDpRysP3GtY/XJSYNeKNVU1p1V9Vjptc8UNZPb3ZOXZTUaYXVn7eS29cbl/Csic/QV7z5SBTDreZEbGUQiY0g+N5cp5274c60/Q7L+lecgzNf1rGMZ8fp7T7Q51gdTqKZ3zY607Jo5WK+eMa8+0tWl3RJgezWXO1Yf1TIrdGpnzKs5W8nqG97xShXArOdFfmQQiYwh+dwMZ8h4Izl+LEjOw3nlOQjzdT3rWEa8/oROkAy8SKS9S21zse7IdvetbcvqnnmonV04B+uBQuZ40L26e/raXa1RT6fsBODUmvX+nnVll3mdub99soldGd5+HRXArOfFK8ggEhlD8rm5ErKezBabcVbGnMtXlIMwo1P533LEcATmdcvKo7eaNWSUnhzX78962FKZrLPGsdaxvGuZvlxJhfhPrVlXo+oaTYU89aLvKPk7h4++SgUw63lRHxlEImNIPjeXKedm/Ju27JUhOVl/pDkI83U96xgH66UXtq3XiGTAvaxdFyxkXM+qXEa0r26fPEnuqbnWsRp7q66Q5ctYNeDNV60AZj0vHkAGkcgYkt/N9VZnIuSKdJHPZuu0wyY1mfubm/VHmIOQI6Ufh0EcrBeeeWBdXlerFQKpvvrtB90FxHDK6ty1nVZJtULwY42ke+306qNaMq0bAIqaS9vWxbvq5vbKE+3S1pFa21n6sS3sldC29NnTx4vMo1yOnuLdR6wAZj0vgiODSGQM2c/NIpPVFp2Bcy53Qt7NC6k5l/GcucXBUeQgpPrMkdKPwyAO1gNRu/rSE8vqnvVOrH3orNzxiI7XS1STz62ru9Z78OdXcGN1u6mVHLPXXWtf3Ib77+1aFqMnzbrULM1yfc1I1Ly8Cw/detLmOJuK5gPQOPXwRRwnEuFw0KvbjVnPi/bIIBIZQ3hxM640hwKSoXe+eHr3XNb0nRyn4l1HqQBmPS9qI4NIZAzhxc240mwFBKaZx5/hAE62MK98D2Y9Ly5ABpHIGMKLm3GlWIHjowBmPS++QgaRyBjCi5txpViB46MAZj0vvkIGkcgYwoubcaVYgeOjAGY9L75CBpHIGMKLm3GlWIHjowBmPS++QgaRyBjCi5txpViB46MAZj0vvkIGkcgYwoubcaVYgeOjAGY9L75CBpHIGMKLmxGq1DTojnsamMUrEbIMm5JUALOel0sBGUQiYwjl5iJzEPJybbzCSiUG+8Y5Rc4OqFvNc50K9lIHOU/bZ6eoYS3s3zqnEFYbN5b80S7xPudThxUz/8Wz940Xvh42pzImys6M3fr0/YfPP4w+8A+0MnlS8lYpqGr7xdzG85Wft2acVq45P7b4YG0j8fGn23MDSvqocOR3dNP/0mWl96L5F7OeF78ig0hkDKHcXGQOQl6ujVdXqaBnxLvJwfrS9KpMG1nwb/RKQWXL+pJv7RR76QTuFhQz/2X8wZUqRXWFRMqUqP3pre33b/kNuoYG68Kth7+f6Nj3l7iyBtev1qK/W3wvkcn6Gtf1aGzu544GjbKqUllVybQCRNIKRXWFZrxvF7M+6SFkPvPIGAIAOAJbjqCJozGEuo65chCqrc64S9d0ykIuieOLTRqY9djVevNawJtY8sdnnBETe+SbM20hAOXS/vMDWwu+nTCxdcnSX01ypUw5F3DO2exbQWLror6ve2Ar5It5yFV3VObNWZvH1LsxQyRCxJbX3FNAkieuDktqW4LEWCzo21nyxabtE7XJ1SjrO+2bs8TObT/zYnKzSIz2eJjc721IH9cLmky9lCDxwEBAzxqkV2kD3rFYyL8TJmIBR9BAJyEsU8zd8K2bRKBctxIiMlMC1Azdiz19/yKZ3pFNfsj66DiregCAxnfr4ScjGgrKQsMvYu8vnt9HF2Fj//WbVo3s9GIG64WGX/x+5Rfdeb4ZiBy9mPW0S5D5zCNjyNEgEiW54LXMkYMQjvcX3BsXDT1ykUQiM2mkFPWEtebNoCtoUKgl0iaDZTPkjehpenKkLewZcicCvaO1UrVMMTzkSsz09lUAQC6bvDWolMhaomF/bEQnr2xYC45NqQBQmTeX/LFxfb0IAJHMQxCFxM25OgyqdROd2rZqqVquHL3o3gmYm1IrlolGCd9W7nG9wDTkTqSzXm6wx4KuOYNCXSU1ddq2QmOBWgq9gv6LRMxjMMnFarmi51RLfxLJAADxsMsR0AFQppjy2j1MqITCCMX6nxXC+nLrOx9u3DLQ+KkcWP/w1zMN9Nu8fyuzWH/6Z7+OTQ+7J+58uhb9x1tzvzDIUuN6qirMepakyHzmkTEEs551eR52k4zt2PsrMuoR9F0gYux1Lj2+xEUdvA1wpS2saFgLESvNNEvK1cFZ33qnmGQ9uR8W9K0ZBKBMEQiQybAg691zdcmmhTpLLOwY3WcICzg6nN5/WJW9PzWczcN6YBrMYL10wu/bGlTSI31R/zgRp2wHgmGPLzauV6dqTm+32Hc5xvVV6XAvP/3Ohxu3OwqquNKaMa6vHJv7NPH+e+/0dzRWa7odi7EP73iTqzPTFWLW00ocDVaOphXMepZX999ESa481qqtzsS0kYnb0GfKpqb9O0u+RIh+Lfl3JlvgZBWutIWarq2wcyKV9QTiNeZUk/cGMvUVhXiY6lURuEpE9OS4Puz0VDFtGqJhdyD1hJLen/6Xo8NAKNcFLjo3Z72xeW9swbezNDCcyilSDOth5N23bqRvWgDU97kSV82UREKlfiVAJBZca+dberIGyek9LeAdz6yvIRY/jU100Hctjf/Ww4/7Uy6CHcSsZ7kJmc88MobgWyPr8jzsJoXOrOCCbGratzWorZdJ1cxLQuKPK21hPta7g2RwIzmcT2d96vYgN2wUzPrMDsMbCRxxN1FfC+C4/lCsX+NgPSm3qF5vCBLuRHgsSMe1DuiGHKwnB/IHjOFkjutl7rmHj0Z09G2r0pX2lrIFx+tTvkMGkcgYglmfujoPvcXBehjDSXj1OWadc6UtrGhYC3LEcG5ws37JG2lMokiot8XDA4XEcBLTxkzWV7awE+fCB9HZrD+fEURPapcVwxF7JtkxHAErhsOWW9DjdCcukd912LuL2s7BelBDZDyb/XDRwQ5sldeYOk63Mt+GWO1lxXCA6We/3p4bOJE8p/HGysP1n+JxPUuy9E1kEImMIZj16Vfood5xsB4INebNsDdqbzCpZE216v4u8ygdXeFKW2g6P5YI2EZrpXKZon/IlZi19VVS8f08rPfH/V19KrFaqZub9sXH9/9NU+4Ol6uD877NQa26UqTWtawEfOmsBz1Ob2K6q08ukkukatbEQwCy4/VA0myDz2Zb4XNpkwk+m52ro25I0r7ulv46mVoikldrA34i5tLSAZK8XihmHg44YV2Mr93yGTR1Wuv8rYcx/2k2niXWxcTHn/5TKjKTajib9QKt68GHG78dOd1crTkzcuef3l98O+MmwRHDkY/ee/r04XRbqvLjvIXn1/PiPWTuKMgYkt/NudFJlpE3GFeuuBNL/kTIuzVpG1UxNeVMWwhAmbTvXGrO5bCS5CN8JMvN+rAj0GmJzpLTNAuec5ljXA+AvLkL1gMnXNo8Ov3KAjuGA0CVbm6StGXBvWIiJ0qSz4oTYR9MvrjkhxshB/3wQFBvhJNQd5Z8cM5lMz2xEkj7R5xwUultmK9x46LRxB5wM/JkbxQxDwcWlllHFqnfUn0yPdye3oZQ//NHH2587EjNAGKay2Y9AOCE4ee/WtlIfPzwn5YX/fr0urjj9Z2LnyXQybuCWc9cI6XcQAaRyBhSSu+Wti6VeTPs9Oz7Q6HSNvpa1ZYrhnO0Hcw9rj/xs99+8WTRVNB3lqPt74Faw6w/kGz7FUIGkcgYsp/HXt1xivUZQQX4o6TU756YH0DBjckW9avrLC8tv6asF/YtP3043ciLya+iUsx6XlRHBpHIGMKLm0tSaU7Wl6Tm41IJuR7OH927f3Q//11j7uV6+DKlfORXF3Zh0549vEZCUmRkPvPIGIKfzfL1+T/iejHryyTVP9ZoyFd1qX6fVagTRUzTGmHqlwiFlj5W5+FxPS/uQuaOgowhvLgZV4oVOD4KYNbz4itkEImMIby4GVeKFTg+CmDW8+IrZBCJjCG8uBlXihU4Pgpg1vPiK2QQiYwhvLgZV4oVOD4KYNbz4itkEImMIby4GaFKcQ5ChJyZ2xTM+ty6HHIvMohExhDKoTgHYUlyEAobe+NLREQvkHc6dpbGAqnfEnN/bupOT/52ZSPx4cPfL/7CcaLA3yfVnP3ZavzjO0TGEsSgsvWnk79ajm5/+Onz96+fO+q5O9xGvtZHMOt5cQ8yiETGEMrN5LLvtr4yYBrypufx4OUyeM0qLV0OQk3X1pJ7rhYIW+2JJdaCzFwGC7Tjn3z463d/2tZwotHl/3ViOSsfbFZJQVXHjcVobPHOP36Yyfpmx51/Wln0dzTWVVXKqyqzVjzIqgvvgApg1vNyHSCDSGQModyMcxAyP8E9VA5CuPCya0L0emxtAAAgAElEQVQOQOayyVDmtusPv3i82M0eupt+9usEk9G70nb/w+hNuIR/vn+ShvHbPztdWz382wzWV1rfff+9X2jzlcXHcimAWZ9LlUPvQwaRyBiSdCnOQViCHIQAiLRzkxaYxkveskKYTak0h1DmbNbDFeQ/HaOXbQYwW8jvHDUFfcqqhz9OZ31lx1x8+Rdux9zvVqK/X75zu7+Rvf5lQXW+oSdh1vPieGQQiYwh+d3MkdIP5yDMmYMwv5Y5jmp+scyGu2xs7uE//oxBf44CqV3Vw79LZ32DY/X5h9HfTQycPlHT2PHzj9/feOc0juKkBOPewqzn1uYQR5BBJDKG5HcmtaYxzkGYirvkzUGYX8zso6VkfevYr5+zwv2nfxbdvm7FsM8WPWsPZn2WJKXYgQwikTEkv1c51q/HOQjpxH3p+Wbzi5l9FA7kM2I4Dxx00pfs09l7ssb1jSPvJRaHmeRadY5V9lt2UbydrgBmfboeJXqHDCKRMSS/YzlYj3MQMjEcrhyE+XWlj7aPsZ/NWt/9MHrLkPoOAYCwzmA9cyLX6DyL9TBe//7c+eS5wjP+aHz6NLsuuk38N0MBzPoMQUrzFhlEImNIfr9ysB7nIMyZgzC/ljmezQLBCdfvPvz1O8ycy5VJE3tSfPXw7z7+dGf5583ZNWexHpS3za88jF13WU/UNJ+efJB127Atffb08aIV4z9TTMz6TEVK8h4ZRCJjSH63crEeAIBzEGblIMyvZS7WAwBqOyZ/u/Lw+ccPf3/ruivjt1SVp2+tPYxdt9Hpv1kNZLMeAOEJ68Lir+Mff5pYW/1PP9Wlp/RqnHr4In5vCE/OYYlIbWLWZ0lSih3IIBIZQ0rhVX7qwDkIS6mrZOidL57ePZfO/1I2cHzrwqznxXfIIBIZQ3hxc0kqzZmr5I3KQVgSGalKBKaZx+hkAy+hMPh3s6UVM1UbMohExpCUb163rZysf906iftz/BXA43pefIgMIpExhBc3l6RSzPqSyIgr2U8BzPr9FDrQcWQQiYwhB3IjLoQVQEcBzHpefIkMIpExhBc340qxAsdHAcx6XnyFDCKRMYQXN+NKsQLHRwHMel58hQwikTGEFzfjSrECx0cBzHpefIUMIpExhBc3A1B86j7Z1BUiapUesj/qzoFYyL9z25+4qDvkL0RLWNUhjSpJcUmzLTbf28f+WW5J6j3+lWDW8+JDZBCJjCGUm0ueg1Ddap7rVBRDW1FPr2VCJyrJZdfnIg7PeqonRVdV1bJ+yaAuiRmlrUSpnzvXUH/YOsUev3/Hb1CXK+dm/Inxhn1cLCPa7+11e87SK/krVFO7Hed0h+1FSctj1pdUTroyZBCJjCGUZxDLQVg0oOnrM/tvsVVJTg3E/a8l67NtO8gewbDHv+PVS8pkU9P++Ih6f9av7llXHtQmM+Ni1u8n+hGQ5QiaAAAg0woyhlCXHlcOQlClnfK4YFQk6I6OtDQxw+4ybWTeOVGrnhofi4f9iaA70pw8JjHa42EYRdnxpg/6yqT9g46tBV9iiTx625/w6qmf7PeNeKmdG+wYjsq8OW/zGC3RGSIR8sWv2idq6ZWEJeoJl2Nznkgs+eIzzohJlkGcogAt1xlXpmEHEiHvlt82yiwLTEqTqypBk6kX9mrJFw8MBPTi5Me31rgeSBpCZTRMTOaFfplyLuCcs9m3gsTWRX1f98BWyBfz6Kmht6S2JUiMxYK+nSVfbNo+UUvJKxj2+KL2hikPPJSYd0aMtO0q8+aszWPq3YByEVtecw+zPKbcEA2Smi/09tEDbLiiUZcj4TUOn3NszdNFmCUU8jjLRcQvaIVA7Lnk28pI5iWoJz56+tndc3IGaDKifeVBE7F9+oKVbDmN9YK3Ljf/cttyb88aedRs60x6t8x68taTkz0EPLSya408aurWM70Wts60LT633tuz3HzA3s80eIANPK4/gGj7F0EGkcgYkvRZzhyEZYqpaV/MYzBVi9UqbWCSiHsakh9jmLKDiAUccwaFulKkVimbGLLAGgWmIXcinfXqLkdiprdPAkCFMjDti41oJcwnGAAAx4m+TNYv+eN+s6kSgDJxn9OduGpOZk0pVwxb9T0aqbpKarIOxMNOT/qSXrkAzXFxlimDs0TUpq6vEquVyv4uvaki7czsquQGeyzogoZXSU2dtq3QWIC5CVHL2Rc4ri+DYZCtQaVE1hIN+2MjOnllw1pwbEpFdqBaN9GpbauWquXK0YtuOuE7OawOu+Ya4A1GrrdshsYC1IL3KvPmkj82rq8XASCSeQiWs8j6hK32eBbrd277Noe06nLaKc7kOD2Ps5q67WtWBQCCnnPOyCn6PkdpRrL+aSbro+qTl43LURX0EYv11UT7neft589WyjSVTZfbbj03niFjO2XWk5G9M5GoWi0BQFTRud69+kBNXXZ1M+Y7j04a2yukGolxqWNlu6mVuTulea2oN5j1RclV6MnIIBIZQ/J4TtjYGws5RplPk9K8GXZNUV/GIev9mzYFV3HTYAbrBf0eX2woOWau73MlMoGYk/XeCJORr84SCw+MpoMYtl6uWwl5gw1pHckGdNph9psydWSeWLfSo2P2IXI7qyrphN+3NcisXy/qHyfirOfAuUzLqpTaAVlPrDQLQJly7oZvzSAAZYpAwBtpzDofZiq398PHqnBcnyCS34cANbgeJFWFrHfP1SXLCmERxyjrBixstuVgfWhgmJYU9vyKkfxWsa+zsnrItUNGtENSS6p/vm1+u53NeslQzPrLa3TjQNj7wHpzUVoGAMl681B7ssrys813nje3wjuY/OfPu8ep7wcAAEnN5K6VGGQPGLh6kX8/Zn1+fQ54FBlEImNIHkfCBY1vdLUxHyZIVRJJcBiujSz4VlrpoEpWLdmsH/b4YhSVAKjvdSUmW1Lf9GHxXKwPOyeYkzRdW2H6xiOSDZ+3b9zwxua9sVkisURk8DEL0Fn9Y+1Qt1o2FmA0JmjVwkFx+r/MqvbLQVgc62+QdykK8Xo47A1cJSJwAwjlusBF5+YsaeOCb2dpYBj2DbKeHSXvGSES3gZ4O85YUkJmiIbdySE/aVFO1rP9C9191Uh+c4Kt5HVWukZ53iVZD4D6Wsfyeo2UGdeLaiZ3LZ6zqaJvLZ5efaCWUqzfbeukhxhlZ5uWd1tOiQDQaef2ztzbta7Qr3t7Z64RGeG7VIUFb2HWFyxVMScig0hkDMnjvf1YT45JOcpnsR6ou52JG2QMR6QIXCE2+tLDLhysTwVnUqwX9Di9iUBvfzV5p4F3oEOxHlogkvZ0dq0FiMSsfTi9XzlZv2ZM3eQg3JngUrExnBvuoA6whvM06yH9fbFxfTIyBgfpLNa7tAzgYPdYrJ9gOi83bBTC+oCZuZezWL+vszi8nr2bYT1Q1Ew+73B0qvzUPJx9WN9ipu+6KdbrtXO75pGzFXJN6iWlbwnZTRe8B7O+YKmKOREZRCJjSB7vCRtyxXCoMAwZr4fxB45/2awHZbIJP5EIemOzY+uDDfXM14VkDbnH9blYD8/ctNFUkxk2DjeuT1lQppi66ttMvwllsh6IPZPsGE5mDkL4leVK3keyTHswdMPB+sqW9XAqMAWfnKdYT055TFYinbgCOwPfwRhOKuQl1Nvi4YF9YzgJDtbv5yzGhv02UqwHoG7RHFlvnk7Ouax0PMmM4dxaomM4u7lYD2M4Vr+b85rbry9cxzHruZQ51H5kEImMIfncWSabuEIkn80qyWezXn1y5vgBWF9n2Zq3e+oUTUpZvVzMjEzpDhTOetHwOJGYNJokInm1dsrrToQPMa6vVI92N5hUUnmluF5nWJ8n1oz0iJLsWRbrAfxRUpAzB6HEYI+HnFN1YlihLK0q2lL6bx7Wl6uD877NQS187q1rWQn4WKz37YTdK13K+iqpqcseC6c9m437u/pUYrVSNzfti4/TD9LJBnPHcLhYv4+zaBMy/uach8M8WQUa1dTzM/f2kvPr5e62ZerZrKICPpvdNZ4lo1cwXp+T9QBoZzpWn7c7BqVqfWWdtbr3mkqb1gPTLx8+jd0pNvcWZn2aiKV6gwwikTFkH89K1FPjrljYvxNyb7ha2phHaVysJx8zJsLkxMolP9wIOTxVsBGhyhglf9GanI94w5aMliiNGyFfIuyD+5fgRmLa3FRGB6Dp4TtIxXAAqG6IXCFnSc46g6fUE5fo55lwJihZ1ZJ/h2o9mHr2mNvSSu3cpDtO/dR2fmzNrlVTXzjyVSWoJ2eC5s5BWCYbdkHFEiHvpjMjD2B6F/KwHgB5c1d0lppwafPo9CsLqRjOlsswQU11zZhzGXYEOi2wVJg951LQf4FIeuS2fyfsS4SJFQMcHMM5lxys53RWugWZ73LOw0mxHpQ1LZ2+T7MeAIGWaPrlthXOuXzScs6aHLDnYT0AwiZ6mubKtvnamirtR2vy0Q9evPhoPEfGxsyOpr3HrE+To1RvkEEkMoaUyrP71CNpWJkfCzZLqeG8sFIx5fdtneecxrNPbW/uYfKpqTONcEkxqGezJQhfA3BMnSXsXvrsi99eLBb1ALOel88TMohExhBe3JxVKQwfz1pMqRi9oO8CERvKxayssofdITds0L/eor5SMP9v2vm/2ZS49f1YT36FOqRir9JZh+n6W1f+c+wgydMx6w+jOmdZZBCJjCGcrirtgWrjRoge15eL205ZNoKpB4mlbQrp2o6C9eANcxZmPS8fGWQQiYwhvLg5R6WCJmNv9AYB10IIE7Er9jkD58+XcpTGu5IKHAnrwZvlLMx6Xj5eyCASGUN4cTOuFCtwfBTArOfFV8ggEhlDeHEzrhQrcHwUwKznxVfIIBIZQ3hxM64UK3B8FMCs58VXyCASGUN4cTOuFCtwfBTArOfFV8ggEhlDeHFziSrFWQBLJCSuJp8CmPX51DnwMWQQiYwhlCtLnoPwwFdIdsHsVQqyz0nbg7MAsuU4DlkA2f09+m3Mel40RwaRyBhCufl1zkFYLOtxFsC0jy5cfex1zwKY1uEjf4NZz4vkyCASGUMoNxeZg1DQP+6LjzAr6wqGvak8JGqrM+7SNZ0icwcu+WKThmQyKe4L6rXMAihoOmVZmyaXygl5N73mnuTyA3CGO84CWNosgNyXxlEcwaznRWVkEImMIUk3F5eDcB/W7yy4Ny4aeuQiiURm0iTXwOG8nl7XLIDqxhZPq7JJJlardMGrvlgyPx/OAlj6LICc18aRHMCs50VmZBCJjCF53Mydg3A/1gft/cyKmHkaoA4dhyyAMCHJZAu5fA8c1+MsgKTrSpYFcN9rhNcTMOt5kRcZRCJjSB43c+el2of1iWkqlV2eutMOvZ5ZAOUNxsilsS2Y5tAbCzEZQiDrcRbAZCLAEmUBTLsajvwNZj0vkiODSGQMyePmglkvGiXS4vWJaSpFdZ66sw69blkA5YZoiFjvVcphRm/AyiJLsh5nAWQSAZYiC2DW1XCkOzDreZEbGUQiY0geN3PnIIQrEscv6pK5pWDODX9siEpOCOAd4gCsp/rx2mQBFLbaEmF7Pwl6AAR9I94dP5VZkIzXJ7cBADgLYJ4r6HgcwqznxU/IIBIZQ/K5mTsHIUwUHnRM6aRymazP7oiFD8H61zMLIEzf6o4YYG7CNmPvxoKPxXqcBbDEWQDzXYT8H8Os50VjZBCJjCH7uJkrB2G5bNTlglHskDfqbBgeHNs68Lj+Nc0CKDLZBraCcAXmTY+xp9WyNcmM6304C6Dl3p61dFkA97kIeT6MWc+LwMggEhlDeHEzypXCeH0MZwHM6eKDZgHMWdmR7cSs50VqZBCJjCG8uDmj0hLn4cuofb+3JW59P9bjLIBMOvj9PPOaHMes58URyCASGUN4cTPKlR4F69+0LICv9nrBrOdFf2QQiYwhvLgZ5UqPhPVvWBbAV3u9YNbzoj8yiETGEF7cjCvFChwfBTDrefEVMohExhBe3IwrxQocHwUw63nxFTKIRMYQXtyMK8UKHB8FMOt58RUyiETGEF7cjCvFChwfBTDrefEVMohExpC8boYLAGz0SvOec/QHM1ZeK2UH4O+Br5r3XXC/lE3iul61Apj1vHgAGUQiYwjlZo4chG886/lPZ8ihfPGfPuO69f5uW6ciWbL8bPOd7ZNvFV/Pm1cCs54XnyODSGQModzMkYPwTWf9EaQz5FC++E+fcd16b9e6OCMpI8ti1hcsIWZ9wVIVcyIyiETGEMp7HDkI2awXtNmc8Vn7aDUAlQ1rQW+kUcB4Xt7pSMxaTMlVIZndmRtynWHF746H/TshInaltz/5E1Npn92+ccObWPInFtzrgzo1RStYWtTW2RsNEPBQ0Lt5UV8Pd8IYTsxl8FygFuRxR4dYRUQKz4gTLtQT9m56mMSBmT1hv5c3mNdvEIkwsXXJMnqOjuHUGtcDsEs7t5OvBLUeTgVpu55lu4m2XWXenLV5TL0bM0QiRGx5zT2VTDsiU699Y963s+SLXbFN1ImYAxzKJ4+3XX/4xePF7uSCokyhXBvGdesv15oXt1uMZLJENuvLddVvR83Lu2dWn5+eXqyuSbYu7H1g8V+uGYqaI8+tK8/N/hlZKlynkJ5d64jsnrm32/3Ltdq3kgkYczV87Pdh1vPiQmQQiYwhSTfnzEFILthLxusFTd2O+OzAaDXFOFH/OBFPreEu9lzybQ0m1zTmum6EGvNmmNgY0vdoZE216n6TlgQ3BLrJZBhuUNRXiZv0XRshYs2QhFF9lyMeGlvp1rYpZW063WirjIQeZP1O2Ltu0zbJxE3Nls0wU0Q87PHGPIaearFcrp7weBN+A90KR78kDWtB38Z5bVOVtKm1ayPo32HF61nL1jPFyfWcL+ho+Inh2v2DStgxuDSmPzaurxcBIJJ5CCLuaZCT5eqtzvgN22idVF4l67M74wsDo8xSCrmVTzZXHOvnrsm6o5a5a/AWk2K9RHYhZl28q6rTCOXtNReeWG7elYth/cLeB2fu73ZcOCssB0DcqZvb7R6zUg1X2h5Ygmuqt3RCmV7ueGBZXlcdt5UPkgoW8AezvgCRij8FGUQiY0heH8JxfbRbWm+yx+YHPMrUYFbSbIsv2PooJle1REPugCZvTUDQ5yLoNH55zhSNXvJt2smgM7ksfnI7rQTJ+tQS+eSd5jx5p6k2boSdEwyV4N3FNZX3HgS/kcz39tDr1PeMePdjPYCpGZkki5X69ZB7ro7sH7kMcnIbAKHOEgs7RisBKFPOzfjWTtFj+XJ1ZN4X7SJxm2bX4d4Y12EAR9R5Mrjd1CpJsV480rLyvJm+fYJy68lbu+09UGHI+pX1GrojleceWX95GeaOLOt86+Zum5m+nZVbmyK77b30k4DDdfM1LI1Zz4tTkEEkMobkdTMZw7lg2woTKVRRBcq1kXlipRXSH85dCZibUoGXnFXCqnKBmwzUdFnWp90xMttfPOzfOkdipUK/HvZGGrNrI+fhXNDSgQ3BsDeZFQsmGLntT4R8zGvntjfYkF1Dak/beXcilXiETLSyz7ieYjexZoTslhsHEje62ijbVebNsNPDDNhlhmiYvAVWtqwv+XfC7F75OaRIdazoLYr1ZaCi94HlxuUKZlyvnTGvPqqlvl/ASiWqqeT4Xdj7wBpcTMb3AaiwPbLOk98Jfuxuv7d3ZnU3mWhwZffM/T2zQ190l45JAcx6XhyFDCKRMSSvm6UTV/yJGwPBi2OJGVsfPc4jiwh6nN74RZ0ESD2Tvs0+ZizNVZ90ajo36+Wn7PGQK9AoJdkNx/VJ1ldC1uciNcn6kZystyfCA55qqVrGvMSSvE8RDsJ6ANrOjSUIvRyIhr1EsrdUDIf9rUJu2GBYH/aunGK6BDfkhede51I0Yz/NeiCyNt2KnWwdbFqOwXk4+VnPPMvNYP3q82azroJJNCjXCOnhf0azCLzFrOfFicggEhlD8rqZfjZbJvNcIuJESz1r8A5jFAv2fmVLNOSaqM5bDTwIw9yJSy2p8SVdwjTkTUzS+8sUgRv0uB6GPvybtuy7CCfr4fKQYfdcLV11AX/TYzigx5kew+l1Ja5QKUrS61KaN0MOj7JhLTgWUNGHYAwn9chaqLfFwwNMDIf3nykwrAeg4uwjy7W1tgjJevFgyx12DKeTHcNJzdths56M4RjP6mjDEP+LWc+Lg5FBJDKG5HUzzXoAQKU2MuPbPKdMDe5hPJ1YG3fEWTGQPLUJa7s2w0R0UN+jkjVp1P2mBhM5TQWGgBYGPCqxRKLoP++MMTEcAOqtzkTIFekin83WaYdNajVsgJv1QNw/7k0EbJ5GRZNSYdLrJ6xasgh3v6r068lns+ImvTma/mxWYrDHQ86pOrG8UlwvowPusDLpxBUi6nHEWQEf6tls3N/VpxKrlbq5aV98nH422+2IB11Bo7qJesjc19JT2Li+uGezzCBdPNgc2Ttzj5pfL5K+nXo2W33hkeXWXfmPoQ0whsMUYbMegIozDyx3Hp3s7JSc0EtOnlWdI2Tscb189N7Tpw+n27hlPU5HMOt58RYyiETGkLxuZrEeAKHGvBHyrhhSH/q2c+6d20U8ZlQ3GleukBMZw0TsiiUZFBIpPONj8bA/EXSvn9P12V2bVLwe9kxkstqiM3DO5U7Iu3khNecyniuGA0uUy4YHHZsLcHZjfNa1Ztdmf5PIMFneCOdcwtmQ/t5Rqy0N32WyYZcrFvYnQt5NJzP3Blag7nIklvxpwSsYr3cEOi3RWd9OOHPOZVtXb/QGOXl0wb0xbjCxbxwZHWK9PSDrAag8/+TMffq3VGUa+RAz53Kp5kSy7TysB0Ai6b3bHnxuvbdnXY4ZL12WsjvcufhZ4rNFK/3EhNXh47iJWc+L15BBJDKG8OLmN6FSSHbXFDt4RT2bTX3xQVaFEz/77RdPFk2IoB5g1vNypSKDSGQMKaGbJcYB5pdH6Rs5H7GWsOW8VZU4B2GyrfpeV+bk/Yx5OHk7dZwPCvuWnz6czjFB6pgahVnPi+OQQSQyhvDiZpQrFcglYnWdYX3eu8JMWqfsfVNYj5p3Met58SgyiETGEF7cjHClcH0I307IGz2X9SQAs/54+h2znhe/IYNIZAzhxc24UqzA8VEAs54XXyGDSGQM4cXNuFKswPFRALOeF18hg0hkDOHFzbhSrMDxUQCznhdfIYNIZAzhxc24UqzA8VEAs54XXyGDSGQM4cXNJal030edVfr1hbFAMSsilKRfuBLEFMCs58WhyCASGUMoNx8sE16P05VrHUoASpK6b1/Wi5SeQWP6imwHuWgPZnuOlnAWwByiHINdmPW8OAkZRCJjCOXmg2TCK1MEAjnXHAalSd0HWe/w8P8z1IPYnvPDgbMA5pTltd+JWc+Li5BBJDKGUG7myIQnaDplWZt2x0PkcjReJqWfuH/EtbXgS/04Fq7vSNbElbqvTB2cHQt2GlauuOMhX2LeFTFRSaa4LzOS9XB5mZms5WXKlIGrZOtLGTlSuDpMrpMz5IB9JtfJWWetk8Nhe7Jjxa1Ig7MAcvvztT2CWc+La5BBJDKGJN3MkQlP3djiaVU2ycRqlS541RdzqlOLoJTrVkJEzhhOjtR9ZergvH9nfsCjEgEgUBvtsbDDk71cMfuiI1P6xS+Z+5T0spF0Sr/kWZUt69QC8axSXB2GaxfP2IY1UnmVtK1R72lOZVYFHLZTtRbHepwFkOWL47KJWc+Lp5BBJDKGFO5mSPDJltQSwcWzPpXWo1y3EiQi+TMdkcvBM7lKyOXgyZR+TI9hMpOMcT1zDG6wOwxXTr7Re/jgfloDGW9wFsAMQY7JW8x6XhyFDCKRMSS/m+UNxsilsS0yO2As5N9hL1VfNOt960Y6Y22ZNrLgo1IYcnaAfDabSh4ro9M8MQVysZ6zwyLlhMedCHs3LppHa1PLMjOVlWCDzhaCswCWQMwjrAKznhexkUEkMobkc7PcEA0R671KOZnGLzMyUzzr107xzPr8HQZArtFNjThjYWLDzkq6kk+CYo7RrMdZAItR7dWfi1nPiw+QQSQyhuRxM0zVHbb3J/O1CvpGvJnjeo44DFzvNyN1H4zX+4pm/ZI7SCfCEzZYYlRKP6bHWeP6fTpMFySzTdlou+i9h//LsB5nATy8mEdYA2Y9L2Ijg0hkDMnnZhgxd0cMUnmluM3Yu7HgS2M9kE1d9W+5GuolIrlMKmflLcqRuu+ArPfHPS1NIgBEMg9BMCn9kn3OYj2ZBTB3h5sMhlG9or5KJK9S9A+NJW50tbFy5+YRobhns0xKP5wFMI+mr9khzHpeHIIMIpExJK+bRSbbwFbQvxMmNj3GnlbL1mRaom1JQzJ7X3zGMcGk2AYAZKfuOxjrb1hGu2wbs0QilJbST945kAj7EmE/nPQJN3yxIeqZMWeHmzrtm7NkLsMwseXv9WjoaFJe+wEAB2Q9zgK4n7Cvz3HMel58gQwikTGEFzfjSnlWALEsgDyrtU/1mPX7CHSww8ggEhlDDubHUpXqcxGpH2TdJsfp1P9LzHOCUjWFUj2oZQF8tb7BrOdFf2QQiYwhvLgZV4oVOD4KYNbz4itkEImMIby4GVeKFTg+CmDW8+IrZBCJjCG8uBlXihU4Pgpg1vPiK2QQiYwhvLgZV4oVOD4KYNbz4itkEImMIby4GVeKFTg+CmDW8+IrZBCJjCG8uBlXihU4Pgpg1vPiK2QQiYwhhbjZNOiOZ6wnXEix4s6RTV0holbWUsOFFhcMe+Biy+zTj6TD7Abx9jFWALOeF+chg0hkDKHcnD8Pn7rVPNepSK1cz8ulIerptUzoWCstFNpKDtbz3GGxx08u+VmunJvxJ8YbDqyMbGz7zOqj2hra1LcWT99Zq04uQETvxH95VgCznheBkUEkMoZQbi5ZHj5erpr8leZgff4Chz4qGPb4d7x6SZlsatofH2HlbymyatnYtnV1t3vcmlybB7O+SPI0UQYAABL9SURBVAFLcjpmfUlkzKwEGUQiYwjlIa48fBKjPU4tO+NljV7lxo2rvVMjY/GQd92qHb0AN6K95MBfZd6ctXlMvRszmYvYZF4KrPd9I97EEvzR7AY7hqMyb87bPEZLFFbli1+1T9Qyi9gI2rrtmwu+nZB3Y6RlihXDyd1hsi25zrDid0NzQkTsSm9/VbIHwuqG4CW4P7HgXj+vq2eG1VXagHcMrtofJmIBR9CQii/1uYj4Ba0QiD2XfKkELFR9gnrio6ef3T0nZxnItSkb2zYTa8blB2rqbDbry3XVb0fNy7tnVp+fnl6srqG+8YiqL+0aHSPaySfdd3atd2LtFwYrmEXcRO3q8UenV/bOrD43T16TpfrL1T7eDxXArOflOkAGkcgYknRzvjx8AtOQO5HB+iXvSqtYbrDHl4g1k1TS2BubtfSUAXKlSX9sXF/PLE5ZYKAfjpF9maxf8sf9ZlMlAGXiPqc7cdXcRHYXNhcei5xSqKtkPX2O2JI/PV6f1WEAhBrzZpjYGNL3aGRNtep+k7aesrxCG5khonYtzLNYq4/c8G2eU5IxGUH/RSLmMZjkYrVc0XOqpZ+1XFpTt33NqgBA0HPOGTmVnvmEZP3Tgll/+sLZas/26ZFOSOwU6yWyCzHr4l1VnUYob6+58MRy864ctgNZf+ZerNmsKwOgTH25/c7zFiOVf11RM7ndPXlZVqMRVnfWTm5bb1yu5OVDjFqlmPW8eBQZRCJjSCFuNg1msT5MpgOUGzbCTk8VADJDNDQwLKJY756rS9Yq1Fli1Jn7N5OT9d5IIz2WryPXr68AAEAKJzwNFOFAmSIQyGA9yOwwEPS5iLQEinR/5KaBRCC1vjFMVThrMUHukqGhcb2aGebTRUr4Vza2DQM4J651LEdVUhbrxSMtK8+bDfTTi3LryVu77T2KJOtvXKafEEhUU7un326HXaq53LH6qJb5NqGdMa8+0Z4oYWeRrQqznhfXIoNIZAwpxM2Z6JQbN0Lk2mQM4qtaIOsrSNZT9KfqlRmieVPCslrPxfqwc4KBl6ZrK+wYhYCXTlxhR04Ew94c83DSvoiQRTbtClZzyU3TkHtnyZcI0a+wf4dOzyJU6lcCRGLBtXa+pUdG33KyqzjEHor1AEiqLz03D7WXMeN6SGoWuAFkeveYlWK9xXOWblNU49/tvtAJ355as97fs67sMq8z97dPUt+D6LPx35wKYNbnlOWwO5FBJDKGFOLRYlmfShILB/750n+zWs/Neo+MPiWd9ZvnGHAXxPqpaR8H6707V4xtcqlaxrxE9KgZxkzq9YYg4U6Ex4J6epRN9+jwf2nWA6CdMUfWa1rpeTh5Wd89bqWbTmf9alRdo6mQp14CPr+U0H049n8x63lxITKIRMaQQtxcHOuXUoEXod4Wz0gcyNle4axPj+EAReBqATGcC0TiUgvzJYHphdzkSMzb+vbBuKDH6c5ZnKnnYBsp1gOFyv+8g1g3U3MuxYMtd9gxnE52DCc362uudazG3qrbx5KD9RPtUpj1vPgXGUQiY0ghbi6S9f64v6tPJVYrdXPTvszEgZztFc56INHb6GezUpN1IHZ7X9YDYW3XZpiIDup7VLImjbrf1AAf+cKBuzo444t5jH21siaVsueUYeoU9VVC2tfd0l8nU0tE8mptwE/EXFrWeJ/TDFDkPBwG3DCAs7p3ZoWaXy+Svp16Nlt94ZHl1l35j5PPZpkiALDG9UBRc2nbunhX3dxeeaJd2jpSazvL7rDQtvTZ08eLVvY+bivepCOY9bx4GxlEImNIPjeXKeduwAx/cELkkh9uhBzwSew+8XpHoNMSnfXthNMSB3I2pDRuhGArMGnJEtnctLmJmtITduaK4UDkmazknMuwd/OiweN0J+fhcHWYbFvdaFy5Qk7uDBOxK5a+5LNdIJTpAh5Xcm7lVWZupbR/xLm1QPYq5N24aEzeGzjNoA8UOQ+HBW6NenqXZj0AZRr5EDPncqnmBDVgh/NwWEXYrAegXF8zQha5t2u59aTNcZb9kKFx6uGL+L0hJiZG9xf/xazn5RpABpHIGFJiN6vMm2Gnh8ZoiSvH1R1cAcnQO188vXsOeyZbQsz6bE1KsAcZRCJjSAmcyq6CYj39M6XkEblhg/ypVHa6wZzPS9n14e3SKCAwzTz+DAdwcoqJWZ9TlsPuRAaRyBhyWI9mlM/J+oxz8FuswOukAGY9L95ABpHIGFJiN2PWl1hQXB3vCmDW8yIxMohExhBe3IwrxQocHwUw63nxFTKIRMYQXtyMK8UKHB8FMOt58RUyiETGEF7cjCvFChwfBTDrefEVMohExhBe3IwrxQocHwUw63nxFTKIRMYQXtz8GlaqMkapH0Yll7F8DbuIu/RqFMCs50V3ZBCJjCGUm/PnIOTlUngVlcKULCVgPc5B+Cqcx1ubmPW8SIsMIpExhHLzcc5BWMSFWiLW4xyERWj++p+KWc+Lj5BBJDKGUG7mykEIqrRT1FoxQXd0pKWJWUWxTBuZd07UqqfGx2D2vqA70kwfk6gD3rF4iFxJ5nZWZsFcl5VcZ1yZhivVJELeLb9tVEmfJFJ4RpzkSjXeTY+5J/UDfzIH4bwvEfRuXDCMMuvh0OW4/uZkfe4chPkyIAKcg5BL4eO4H7OeF68hg0hkDEm6OWcOwjLF1LQP5uGrFqtV2sAkEWcSCpZpIwswC+ucQaGuFKlVyqZkvjsRmboPpnMSKg3RILFmFO+zsmKZMjhLRG3q+iqxWqns79KbYPIpAIB42OONeQw91WK5XD3h8Sb8BipxIMxBGHJO1YoAENSfsmXlIEzalP0nB+u5chCqzJscGRABADgHYba2x3cPZj0vvkMGkcgYksfNQohUKhUUeZbSvBl2TVWT25D1/k0bkzCErqZMHZwnVlqpBRZFo0TuDCH02VRV6sg8sW6VZd4Sqo0bYWcq7QlMGOuagkN+uH59/KKOPl82lbV+fVr9rDfZrOfMQQhZn1qIH6QyILKqO/QmzkF4aAlLUAFmfQlEzK4CGUQiY0i2j5g9aqszcSOVixWU61ZCvjUDyXHIeh/NdKYEAOR4f6W5GNYDoG61bCz44oGBoFULk5KT/4SttsRtfyo7IAwKeYMNyRyErEXTcuSlYnUobTOb9Zw5CMnFHnJlQEyr8JBv6FwlOAfhIYU8VHHM+kPJx1UYGUQiYwiXpwAA+7GeoJnOrkM07CFi4w3qMiCsNqwvuOfq2Iuos89M3xZJezq71gJEYtY+TK6xLmy1J8IDnmomNaBULRNLYFK9/fPNpledepeL9Rw5CKmFfZjV3lMZEFO1HX6LZj3OQXh4LQ9eA2b9wbXLUxIZRCJjSB5nCRtyxXCoB6dp4/f0OmT6tQVfYsEbu+GMdCroSEv6OVzvyhRTV32bfSRiYQzHPVebfWp6DsIyRSCQmZcquwy1J5v1nDkIj5j1OAchl8/4349Zz4vGyCASGUPyublMNnGFSD6bVZLPZr16NVWAm/X1fa74pBGm+lPK6qsKGNRXqke7G0wqqbxSXK8zrM8Ta0YqjiPuH/cmAjZPo6JJqTDp9RNWLdU6Owdhj3UgFj446zlzEB6Y9TgHYb5L6nU8hlnPi1eQQSQyhuzjZol6atwVC/t3Qu4NV0tbcoZMRlw+rQ61aSBOTrWkMpPEvC1NMPDC/a9SOzfpjofg7MzE/NiaXasuo08ulw0POjYXfDtLvvisa82upZOD0zkIQ96NEf2Ex5fMQUiXy/orGvUQyWSKt8lkimFvRJ88K3cOwsOx/undc3RXs/rC2pGK4cCdOAchS5oj3MSs50VsZBCJjCGldbOwwbI1ax+tTg7nJdUt60GCoWpp26JrE/Tvz3r63Df3L85ByOl7zHpOaQ5zABlEImPIYbyZXbbtnDuRmg0JQJlybsa3cvoUnzkIBcMk6yXGgewch+QeavZOdmffpD04ByG3tzHrubU5xBFkEImMIYdwZo6icLr6rG1UCcf1wkpZn90RXxgYTv3eNUeRQ+9Ksv7Q9eAK3lAFMOt5cTwyiETGkBK7uUzaf36AjLD7E0HvJmEZ1dAT5kvcElMdZj0jBd44iAKY9QdRbd8yyCASGUP2dRk+ASuAtgKY9bz4FxlEImMIL27GlWIFjo8CmPW8+AoZRCJjCC9uxpViBY6PApj1vPgKGUQiYwgvbsaVYgWOjwKY9bz4ChlEImNIyd2s7hyAK87f9qdNvgQAvAFZAIU9690re2fu71mJwZILiyvkSQHMel6ERQaRyBhCubnkOQj7XEQm68mWslekOfB11uN0RRozSwsbe+NLREQvkHc6dpbGAqrME4p4b1y33ofgZl7GM5oCiovknueHZ73xyl//+cVffXXn77qTiQEKaBmfciAFMOsPJNt+hZBBJDKGUB4reQ5C3lkPlzzzZrMeaLq2luCKaXCZzCWnp2q/KzLPceO69c66WquvVCdfFT/OczZzqDSsB6If6Qx/F/vnv/zj5N8zVeMNPhTArOdDVYAMIpExhHIzHG7PdJnKQJNtLOE3JBc4g8dEbZ290QABEwQGvZsX9VRmKAAETabe6AyRWILrzgf04ozLpSjW584CyNm6uH/EtbWQynG4A5OK0O3LDRthF1x3XmeJhQeG0yf3t11/+MXjxe4C1940rluX78qZxXnoFoDUWut5YI7sWu/tWm4+aurWp5+Si/XlupoLD04v7565t2u59aTNYWXWhCurGTk5HbOs7lmXY+1vD1akrR30D1d/+5f/M/R/M6sQMV3AGyVUALO+hGKmqkIGkcgYkvRNzhyEANR3OeKhsZVubZtS1qbTjbYms0fJDfZY0AUTEFZJTZ22rdBYoJbBF6yyCNZzZQHkbh02ABOnECnEM5eYSDs3aemvAEDeskKYTekYLg3ry9trbG65VieU6WS2aPfqA3XaOmc5WC/siVpv3q3RaoQynaTZrTbokv0Vn226+bzdcbZSrqioczcHd81DnawuY9YzfuVxA7OeF3GRQSQyhuRzc5ly7oaflQGKOVc64fdtDSrp8bGof5ydFBCeVjjrObMAcrZOdoOL9UwfD7+REa+/90R7IqvS8sHmle2mVM51+E0oO14vPPPAGlySSzOLC7qj1sUZCU13eNqtJSn9FoAf4XF9pmQ8vMes50FUgGM4xal6NHcUzj5V6NfDrPAIcx6ZgHDdmBrI1/e5ElfNTcwJxbCeMwsgV+tUK0fDena8/oROQAVYRPqat9eNwe3uyHb3refWe8+bmtmhohysB6L22smYdXXbSMyo6lJJeqUXts/c27Wu0K/VvTOr69WsMI5t4a/+/Pm/v9r0DziMw7q4SryJWV9iQanqjgZeR9DKETQBjurWyOnpSsh6MsVr+ikk69dKxnqOLIBcrVN9ORrW54jXi2Rj29bFu9U15IpucFxfAOvJPgu0g9rxB92rux2OZKBGemHb+strkmpNhZx5KVLDevgl4T/Ovv9Xf/5vf/G/fv+3ttS9Nd0d+N3hFMCsP5x+HKWRQSQyhnA4itwNVyT2b9qYpKvMuWLPJDuGIzhcDMeRmLf1sUfGVDucrZOHy3UrfK+Mn/vZrE47t2s+Tyc6kV82FjKuZ5QDQGBct6ysUYN3GMOJ3JVn206fb5z86z//y9+sj/4Hmw4P7WlRSv0Xs77UipL1IYNIZAzJ7+Z6qzMRckW6yGezddphkzqZBbDZBp/NtirUEqnJBJ/NZuQQLzxez5kFEACu1sk+y6au+rdcDfUSkVwmzYNLtoGleDYrqbm0a712TSqVCGqsWn/Murr/uL7SeFnV2l4pUwhk+uoLT6zBxWSMXmQ9eXP39ORleZ2+Ut0pM1/WmunHtrDfZLz+Fp6Hw/Zh6bcx60uv6ZEFJY4AxEfQxJHJldfTIpPVRs6t9O+EvJsXUnMu642W6AwBswMGBgLN9GPHMm1k3pcI+3aW/DtLZLa/4MAwDDYXnwUQdourdXhM0mBev0F2YMYxUdhvpkrBegBqRpp+uW29t2e59eCkubN2ejsZry872xTZta7uWu/tnbm3BzfurNeQk1Ere9Y6YGR/78zq89M37qq1rBX95Wd1k0/gr21Xn3fPR08a2T/XwvNw8l6bJTqIWV8iIdOrQQaRyBiS7h/87rVSALP+KNyBWc+LysggEhlDeHEzrrQkCvzkP3z8T3/536/i382WRE3OSjDrOaU5zAFkEImMIYfxJi7LnwLNl/7mz3/83/7nx3/r+gl/jeCaoQKY9bxcB8ggEhlDeHEzrvTwClT+gwqvenZ4GQuoAbO+AJGKPwUZRCJjSPE+xCWwAkgpUCjrkTIaG4MVwApgBd4wBTDr3zCHY3OxAliBN1IBzPo30u3YaKwAVuANUwCz/g1zODYXK4AVeCMVwKx/I92OjcYKYAXeMAUw698wh2NzsQJYgTdSAcz6N9Lt2GisAFbgDVMAs/4Nczg2FyuAFXgjFcCsfyPdjo3GCmAF3jAFMOvfMIdjc7ECWIE3UoH/H2Bhu5xJVWtiAAAAAElFTkSuQmCC;" parent="1" vertex="1">
                    <mxGeometry x="430" y="-650" width="505" height="232" as="geometry"/>
                </mxCell>
                <mxCell id="34" value="&lt;b style=&quot;color: rgb(63, 63, 63);&quot;&gt;#LlamaModel&lt;/b&gt;" style="swimlane;fontStyle=1;align=center;verticalAlign=top;childLayout=stackLayout;horizontal=1;startSize=26;horizontalStack=0;resizeParent=1;resizeParentMax=0;resizeLast=0;collapsible=1;marginBottom=0;whiteSpace=wrap;html=1;" parent="1" vertex="1">
                    <mxGeometry x="280" y="-240" width="160" height="138" as="geometry"/>
                </mxCell>
                <mxCell id="35" value="&lt;span style=&quot;color: rgb(63, 63, 63);&quot;&gt;self.cache_fuse_metadata&lt;/span&gt;" style="text;strokeColor=none;fillColor=none;align=left;verticalAlign=top;spacingLeft=4;spacingRight=4;overflow=hidden;rotatable=0;points=[[0,0.5],[1,0.5]];portConstraint=eastwest;whiteSpace=wrap;html=1;" parent="34" vertex="1">
                    <mxGeometry y="26" width="160" height="26" as="geometry"/>
                </mxCell>
                <mxCell id="43" value="self.layers" style="text;strokeColor=none;fillColor=none;align=left;verticalAlign=top;spacingLeft=4;spacingRight=4;overflow=hidden;rotatable=0;points=[[0,0.5],[1,0.5]];portConstraint=eastwest;whiteSpace=wrap;html=1;" parent="34" vertex="1">
                    <mxGeometry y="52" width="160" height="26" as="geometry"/>
                </mxCell>
                <mxCell id="44" value="self.old_kvs" style="text;strokeColor=none;fillColor=none;align=left;verticalAlign=top;spacingLeft=4;spacingRight=4;overflow=hidden;rotatable=0;points=[[0,0.5],[1,0.5]];portConstraint=eastwest;whiteSpace=wrap;html=1;" parent="34" vertex="1">
                    <mxGeometry y="78" width="160" height="26" as="geometry"/>
                </mxCell>
                <mxCell id="36" value="" style="line;strokeWidth=1;fillColor=none;align=left;verticalAlign=middle;spacingTop=-1;spacingLeft=3;spacingRight=3;rotatable=0;labelPosition=right;points=[];portConstraint=eastwest;strokeColor=inherit;" parent="34" vertex="1">
                    <mxGeometry y="104" width="160" height="8" as="geometry"/>
                </mxCell>
                <mxCell id="37" value="forward" style="text;strokeColor=none;fillColor=none;align=left;verticalAlign=top;spacingLeft=4;spacingRight=4;overflow=hidden;rotatable=0;points=[[0,0.5],[1,0.5]];portConstraint=eastwest;whiteSpace=wrap;html=1;" parent="34" vertex="1">
                    <mxGeometry y="112" width="160" height="26" as="geometry"/>
                </mxCell>
                <mxCell id="38" value="&lt;span style=&quot;color: rgb(0, 0, 0);&quot;&gt;#LlamaForCausalLM&lt;/span&gt;" style="swimlane;fontStyle=1;align=center;verticalAlign=top;childLayout=stackLayout;horizontal=1;startSize=26;horizontalStack=0;resizeParent=1;resizeParentMax=0;resizeLast=0;collapsible=1;marginBottom=0;whiteSpace=wrap;html=1;" parent="1" vertex="1">
                    <mxGeometry x="-100" y="-240" width="160" height="86" as="geometry"/>
                </mxCell>
                <mxCell id="39" value="&lt;span style=&quot;color: rgb(0, 0, 0);&quot;&gt;self.model&lt;/span&gt;" style="text;strokeColor=none;fillColor=none;align=left;verticalAlign=top;spacingLeft=4;spacingRight=4;overflow=hidden;rotatable=0;points=[[0,0.5],[1,0.5]];portConstraint=eastwest;whiteSpace=wrap;html=1;" parent="38" vertex="1">
                    <mxGeometry y="26" width="160" height="26" as="geometry"/>
                </mxCell>
                <mxCell id="40" value="" style="line;strokeWidth=1;fillColor=none;align=left;verticalAlign=middle;spacingTop=-1;spacingLeft=3;spacingRight=3;rotatable=0;labelPosition=right;points=[];portConstraint=eastwest;strokeColor=inherit;" parent="38" vertex="1">
                    <mxGeometry y="52" width="160" height="8" as="geometry"/>
                </mxCell>
                <mxCell id="41" value="&lt;span style=&quot;color: rgb(0, 0, 0);&quot;&gt;forward&lt;/span&gt;" style="text;strokeColor=none;fillColor=none;align=left;verticalAlign=top;spacingLeft=4;spacingRight=4;overflow=hidden;rotatable=0;points=[[0,0.5],[1,0.5]];portConstraint=eastwest;whiteSpace=wrap;html=1;" parent="38" vertex="1">
                    <mxGeometry y="60" width="160" height="26" as="geometry"/>
                </mxCell>
                <mxCell id="42" style="edgeStyle=none;html=1;exitX=1;exitY=0.5;exitDx=0;exitDy=0;entryX=0;entryY=0;entryDx=0;entryDy=0;" parent="1" source="39" target="34" edge="1">
                    <mxGeometry relative="1" as="geometry"/>
                </mxCell>
                <mxCell id="45" value="&lt;b style=&quot;color: rgb(63, 63, 63);&quot;&gt;#LlamaDecoderLayer&lt;/b&gt;" style="swimlane;fontStyle=1;align=center;verticalAlign=top;childLayout=stackLayout;horizontal=1;startSize=26;horizontalStack=0;resizeParent=1;resizeParentMax=0;resizeLast=0;collapsible=1;marginBottom=0;whiteSpace=wrap;html=1;" parent="1" vertex="1">
                    <mxGeometry x="650" y="-240" width="160" height="112" as="geometry"/>
                </mxCell>
                <mxCell id="46" value="&lt;span style=&quot;color: rgb(63, 63, 63);&quot;&gt;self.self_attn&lt;/span&gt;" style="text;strokeColor=none;fillColor=none;align=left;verticalAlign=top;spacingLeft=4;spacingRight=4;overflow=hidden;rotatable=0;points=[[0,0.5],[1,0.5]];portConstraint=eastwest;whiteSpace=wrap;html=1;" parent="45" vertex="1">
                    <mxGeometry y="26" width="160" height="26" as="geometry"/>
                </mxCell>
                <mxCell id="70" value="self.mlp" style="text;strokeColor=none;fillColor=none;align=left;verticalAlign=top;spacingLeft=4;spacingRight=4;overflow=hidden;rotatable=0;points=[[0,0.5],[1,0.5]];portConstraint=eastwest;whiteSpace=wrap;html=1;" parent="45" vertex="1">
                    <mxGeometry y="52" width="160" height="26" as="geometry"/>
                </mxCell>
                <mxCell id="49" value="" style="line;strokeWidth=1;fillColor=none;align=left;verticalAlign=middle;spacingTop=-1;spacingLeft=3;spacingRight=3;rotatable=0;labelPosition=right;points=[];portConstraint=eastwest;strokeColor=inherit;" parent="45" vertex="1">
                    <mxGeometry y="78" width="160" height="8" as="geometry"/>
                </mxCell>
                <mxCell id="50" value="forward" style="text;strokeColor=none;fillColor=none;align=left;verticalAlign=top;spacingLeft=4;spacingRight=4;overflow=hidden;rotatable=0;points=[[0,0.5],[1,0.5]];portConstraint=eastwest;whiteSpace=wrap;html=1;" parent="45" vertex="1">
                    <mxGeometry y="86" width="160" height="26" as="geometry"/>
                </mxCell>
                <mxCell id="51" style="edgeStyle=none;html=1;exitX=1;exitY=0.5;exitDx=0;exitDy=0;entryX=0;entryY=0;entryDx=0;entryDy=0;" parent="1" source="43" target="45" edge="1">
                    <mxGeometry relative="1" as="geometry"/>
                </mxCell>
                <mxCell id="63" style="edgeStyle=none;html=1;exitX=1;exitY=0.5;exitDx=0;exitDy=0;entryX=0;entryY=0;entryDx=0;entryDy=0;" parent="1" source="53" target="57" edge="1">
                    <mxGeometry relative="1" as="geometry"/>
                </mxCell>
                <mxCell id="52" value="&lt;b style=&quot;color: rgb(63, 63, 63);&quot;&gt;#LlamaAttention&lt;/b&gt;" style="swimlane;fontStyle=1;align=center;verticalAlign=top;childLayout=stackLayout;horizontal=1;startSize=26;horizontalStack=0;resizeParent=1;resizeParentMax=0;resizeLast=0;collapsible=1;marginBottom=0;whiteSpace=wrap;html=1;" parent="1" vertex="1">
                    <mxGeometry x="1020" y="-240" width="160" height="138" as="geometry"/>
                </mxCell>
                <mxCell id="53" value="&lt;span style=&quot;color: rgb(63, 63, 63);&quot;&gt;self.attn&lt;/span&gt;" style="text;strokeColor=none;fillColor=none;align=left;verticalAlign=top;spacingLeft=4;spacingRight=4;overflow=hidden;rotatable=0;points=[[0,0.5],[1,0.5]];portConstraint=eastwest;whiteSpace=wrap;html=1;" parent="52" vertex="1">
                    <mxGeometry y="26" width="160" height="26" as="geometry"/>
                </mxCell>
                <mxCell id="69" value="self.qkv_proj" style="text;strokeColor=none;fillColor=none;align=left;verticalAlign=top;spacingLeft=4;spacingRight=4;overflow=hidden;rotatable=0;points=[[0,0.5],[1,0.5]];portConstraint=eastwest;whiteSpace=wrap;html=1;" parent="52" vertex="1">
                    <mxGeometry y="52" width="160" height="26" as="geometry"/>
                </mxCell>
                <mxCell id="56" value="self.hack_kv" style="text;strokeColor=none;fillColor=none;align=left;verticalAlign=top;spacingLeft=4;spacingRight=4;overflow=hidden;rotatable=0;points=[[0,0.5],[1,0.5]];portConstraint=eastwest;whiteSpace=wrap;html=1;" parent="52" vertex="1">
                    <mxGeometry y="78" width="160" height="26" as="geometry"/>
                </mxCell>
                <mxCell id="54" value="" style="line;strokeWidth=1;fillColor=none;align=left;verticalAlign=middle;spacingTop=-1;spacingLeft=3;spacingRight=3;rotatable=0;labelPosition=right;points=[];portConstraint=eastwest;strokeColor=inherit;" parent="52" vertex="1">
                    <mxGeometry y="104" width="160" height="8" as="geometry"/>
                </mxCell>
                <mxCell id="55" value="forward" style="text;strokeColor=none;fillColor=none;align=left;verticalAlign=top;spacingLeft=4;spacingRight=4;overflow=hidden;rotatable=0;points=[[0,0.5],[1,0.5]];portConstraint=eastwest;whiteSpace=wrap;html=1;" parent="52" vertex="1">
                    <mxGeometry y="112" width="160" height="26" as="geometry"/>
                </mxCell>
                <mxCell id="57" value="&lt;b style=&quot;color: rgb(63, 63, 63);&quot;&gt;#Attention&lt;/b&gt;" style="swimlane;fontStyle=1;align=center;verticalAlign=top;childLayout=stackLayout;horizontal=1;startSize=26;horizontalStack=0;resizeParent=1;resizeParentMax=0;resizeLast=0;collapsible=1;marginBottom=0;whiteSpace=wrap;html=1;" parent="1" vertex="1">
                    <mxGeometry x="1310" y="-240" width="160" height="86" as="geometry"/>
                </mxCell>
                <mxCell id="58" value="&lt;span style=&quot;color: rgb(63, 63, 63);&quot;&gt;self.impl&lt;/span&gt;" style="text;strokeColor=none;fillColor=none;align=left;verticalAlign=top;spacingLeft=4;spacingRight=4;overflow=hidden;rotatable=0;points=[[0,0.5],[1,0.5]];portConstraint=eastwest;whiteSpace=wrap;html=1;" parent="57" vertex="1">
                    <mxGeometry y="26" width="160" height="26" as="geometry"/>
                </mxCell>
                <mxCell id="60" value="" style="line;strokeWidth=1;fillColor=none;align=left;verticalAlign=middle;spacingTop=-1;spacingLeft=3;spacingRight=3;rotatable=0;labelPosition=right;points=[];portConstraint=eastwest;strokeColor=inherit;" parent="57" vertex="1">
                    <mxGeometry y="52" width="160" height="8" as="geometry"/>
                </mxCell>
                <mxCell id="61" value="forward" style="text;strokeColor=none;fillColor=none;align=left;verticalAlign=top;spacingLeft=4;spacingRight=4;overflow=hidden;rotatable=0;points=[[0,0.5],[1,0.5]];portConstraint=eastwest;whiteSpace=wrap;html=1;" parent="57" vertex="1">
                    <mxGeometry y="60" width="160" height="26" as="geometry"/>
                </mxCell>
                <mxCell id="62" style="edgeStyle=none;html=1;exitX=1;exitY=0.5;exitDx=0;exitDy=0;entryX=0;entryY=0;entryDx=0;entryDy=0;" parent="1" source="46" target="52" edge="1">
                    <mxGeometry relative="1" as="geometry"/>
                </mxCell>
                <mxCell id="64" value="&lt;b style=&quot;color: rgb(63, 63, 63);&quot;&gt;#XFormersImpl&lt;/b&gt;" style="swimlane;fontStyle=1;align=center;verticalAlign=top;childLayout=stackLayout;horizontal=1;startSize=26;horizontalStack=0;resizeParent=1;resizeParentMax=0;resizeLast=0;collapsible=1;marginBottom=0;whiteSpace=wrap;html=1;" parent="1" vertex="1">
                    <mxGeometry x="1630" y="-240" width="160" height="86" as="geometry"/>
                </mxCell>
                <mxCell id="65" value="&lt;span style=&quot;color: rgb(63, 63, 63);&quot;&gt;self.num_heads&lt;/span&gt;" style="text;strokeColor=none;fillColor=none;align=left;verticalAlign=top;spacingLeft=4;spacingRight=4;overflow=hidden;rotatable=0;points=[[0,0.5],[1,0.5]];portConstraint=eastwest;whiteSpace=wrap;html=1;" parent="64" vertex="1">
                    <mxGeometry y="26" width="160" height="26" as="geometry"/>
                </mxCell>
                <mxCell id="66" value="" style="line;strokeWidth=1;fillColor=none;align=left;verticalAlign=middle;spacingTop=-1;spacingLeft=3;spacingRight=3;rotatable=0;labelPosition=right;points=[];portConstraint=eastwest;strokeColor=inherit;" parent="64" vertex="1">
                    <mxGeometry y="52" width="160" height="8" as="geometry"/>
                </mxCell>
                <mxCell id="67" value="forward" style="text;strokeColor=none;fillColor=none;align=left;verticalAlign=top;spacingLeft=4;spacingRight=4;overflow=hidden;rotatable=0;points=[[0,0.5],[1,0.5]];portConstraint=eastwest;whiteSpace=wrap;html=1;" parent="64" vertex="1">
                    <mxGeometry y="60" width="160" height="26" as="geometry"/>
                </mxCell>
                <mxCell id="68" style="edgeStyle=none;html=1;exitX=1;exitY=0.5;exitDx=0;exitDy=0;entryX=0;entryY=0;entryDx=0;entryDy=0;" parent="1" source="58" target="64" edge="1">
                    <mxGeometry relative="1" as="geometry"/>
                </mxCell>
                <mxCell id="71" value="&lt;span style=&quot;color: rgb(0, 0, 0);&quot;&gt;#ModelRunner&lt;/span&gt;" style="swimlane;fontStyle=1;align=center;verticalAlign=top;childLayout=stackLayout;horizontal=1;startSize=26;horizontalStack=0;resizeParent=1;resizeParentMax=0;resizeLast=0;collapsible=1;marginBottom=0;whiteSpace=wrap;html=1;" parent="1" vertex="1">
                    <mxGeometry x="-440" y="-240" width="160" height="86" as="geometry"/>
                </mxCell>
                <mxCell id="72" value="&lt;span style=&quot;color: rgb(0, 0, 0);&quot;&gt;self.model&lt;/span&gt;" style="text;strokeColor=none;fillColor=none;align=left;verticalAlign=top;spacingLeft=4;spacingRight=4;overflow=hidden;rotatable=0;points=[[0,0.5],[1,0.5]];portConstraint=eastwest;whiteSpace=wrap;html=1;" parent="71" vertex="1">
                    <mxGeometry y="26" width="160" height="26" as="geometry"/>
                </mxCell>
                <mxCell id="73" value="" style="line;strokeWidth=1;fillColor=none;align=left;verticalAlign=middle;spacingTop=-1;spacingLeft=3;spacingRight=3;rotatable=0;labelPosition=right;points=[];portConstraint=eastwest;strokeColor=inherit;" parent="71" vertex="1">
                    <mxGeometry y="52" width="160" height="8" as="geometry"/>
                </mxCell>
                <mxCell id="74" value="&lt;span style=&quot;color: rgb(0, 0, 0);&quot;&gt;execute_model&lt;/span&gt;" style="text;strokeColor=none;fillColor=none;align=left;verticalAlign=top;spacingLeft=4;spacingRight=4;overflow=hidden;rotatable=0;points=[[0,0.5],[1,0.5]];portConstraint=eastwest;whiteSpace=wrap;html=1;" parent="71" vertex="1">
                    <mxGeometry y="60" width="160" height="26" as="geometry"/>
                </mxCell>
                <mxCell id="75" style="edgeStyle=none;html=1;exitX=1;exitY=0.5;exitDx=0;exitDy=0;entryX=0;entryY=0;entryDx=0;entryDy=0;" parent="1" source="72" target="38" edge="1">
                    <mxGeometry relative="1" as="geometry"/>
                </mxCell>
                <mxCell id="77" value="&lt;span style=&quot;color: rgb(0, 0, 0);&quot;&gt;#Worker&lt;/span&gt;" style="swimlane;fontStyle=1;align=center;verticalAlign=top;childLayout=stackLayout;horizontal=1;startSize=26;horizontalStack=0;resizeParent=1;resizeParentMax=0;resizeLast=0;collapsible=1;marginBottom=0;whiteSpace=wrap;html=1;" parent="1" vertex="1">
                    <mxGeometry x="-790" y="-240" width="160" height="86" as="geometry"/>
                </mxCell>
                <mxCell id="78" value="&lt;span style=&quot;color: rgb(0, 0, 0);&quot;&gt;self.model_runner&lt;/span&gt;" style="text;strokeColor=none;fillColor=none;align=left;verticalAlign=top;spacingLeft=4;spacingRight=4;overflow=hidden;rotatable=0;points=[[0,0.5],[1,0.5]];portConstraint=eastwest;whiteSpace=wrap;html=1;" parent="77" vertex="1">
                    <mxGeometry y="26" width="160" height="26" as="geometry"/>
                </mxCell>
                <mxCell id="79" value="" style="line;strokeWidth=1;fillColor=none;align=left;verticalAlign=middle;spacingTop=-1;spacingLeft=3;spacingRight=3;rotatable=0;labelPosition=right;points=[];portConstraint=eastwest;strokeColor=inherit;" parent="77" vertex="1">
                    <mxGeometry y="52" width="160" height="8" as="geometry"/>
                </mxCell>
                <mxCell id="80" value="&lt;span style=&quot;color: rgb(0, 0, 0);&quot;&gt;execute_model&lt;/span&gt;" style="text;strokeColor=none;fillColor=none;align=left;verticalAlign=top;spacingLeft=4;spacingRight=4;overflow=hidden;rotatable=0;points=[[0,0.5],[1,0.5]];portConstraint=eastwest;whiteSpace=wrap;html=1;" parent="77" vertex="1">
                    <mxGeometry y="60" width="160" height="26" as="geometry"/>
                </mxCell>
                <mxCell id="81" style="edgeStyle=none;html=1;exitX=1;exitY=0.5;exitDx=0;exitDy=0;entryX=0;entryY=0;entryDx=0;entryDy=0;" parent="1" source="78" target="71" edge="1">
                    <mxGeometry relative="1" as="geometry"/>
                </mxCell>
                <mxCell id="82" value="&lt;span style=&quot;color: rgb(0, 0, 0);&quot;&gt;#GPUExecutor&lt;/span&gt;" style="swimlane;fontStyle=1;align=center;verticalAlign=top;childLayout=stackLayout;horizontal=1;startSize=26;horizontalStack=0;resizeParent=1;resizeParentMax=0;resizeLast=0;collapsible=1;marginBottom=0;whiteSpace=wrap;html=1;" parent="1" vertex="1">
                    <mxGeometry x="-1120" y="-240" width="160" height="86" as="geometry"/>
                </mxCell>
                <mxCell id="83" value="&lt;span style=&quot;color: rgb(0, 0, 0);&quot;&gt;self.driver_worker&lt;/span&gt;" style="text;strokeColor=none;fillColor=none;align=left;verticalAlign=top;spacingLeft=4;spacingRight=4;overflow=hidden;rotatable=0;points=[[0,0.5],[1,0.5]];portConstraint=eastwest;whiteSpace=wrap;html=1;" parent="82" vertex="1">
                    <mxGeometry y="26" width="160" height="26" as="geometry"/>
                </mxCell>
                <mxCell id="84" value="" style="line;strokeWidth=1;fillColor=none;align=left;verticalAlign=middle;spacingTop=-1;spacingLeft=3;spacingRight=3;rotatable=0;labelPosition=right;points=[];portConstraint=eastwest;strokeColor=inherit;" parent="82" vertex="1">
                    <mxGeometry y="52" width="160" height="8" as="geometry"/>
                </mxCell>
                <mxCell id="85" value="&lt;span style=&quot;color: rgb(0, 0, 0);&quot;&gt;execute_model&lt;/span&gt;" style="text;strokeColor=none;fillColor=none;align=left;verticalAlign=top;spacingLeft=4;spacingRight=4;overflow=hidden;rotatable=0;points=[[0,0.5],[1,0.5]];portConstraint=eastwest;whiteSpace=wrap;html=1;" parent="82" vertex="1">
                    <mxGeometry y="60" width="160" height="26" as="geometry"/>
                </mxCell>
                <mxCell id="86" style="edgeStyle=none;html=1;exitX=1;exitY=0.5;exitDx=0;exitDy=0;entryX=0;entryY=0;entryDx=0;entryDy=0;" parent="1" source="83" target="77" edge="1">
                    <mxGeometry relative="1" as="geometry"/>
                </mxCell>
                <mxCell id="87" value="&lt;span style=&quot;color: rgb(0, 0, 0);&quot;&gt;#LLMEngine&lt;/span&gt;" style="swimlane;fontStyle=1;align=center;verticalAlign=top;childLayout=stackLayout;horizontal=1;startSize=26;horizontalStack=0;resizeParent=1;resizeParentMax=0;resizeLast=0;collapsible=1;marginBottom=0;whiteSpace=wrap;html=1;" parent="1" vertex="1">
                    <mxGeometry x="-1390" y="-290" width="160" height="86" as="geometry"/>
                </mxCell>
                <mxCell id="88" value="&lt;span style=&quot;color: rgb(0, 0, 0);&quot;&gt;self.model_executor&lt;/span&gt;" style="text;strokeColor=none;fillColor=none;align=left;verticalAlign=top;spacingLeft=4;spacingRight=4;overflow=hidden;rotatable=0;points=[[0,0.5],[1,0.5]];portConstraint=eastwest;whiteSpace=wrap;html=1;" parent="87" vertex="1">
                    <mxGeometry y="26" width="160" height="26" as="geometry"/>
                </mxCell>
                <mxCell id="89" value="" style="line;strokeWidth=1;fillColor=none;align=left;verticalAlign=middle;spacingTop=-1;spacingLeft=3;spacingRight=3;rotatable=0;labelPosition=right;points=[];portConstraint=eastwest;strokeColor=inherit;" parent="87" vertex="1">
                    <mxGeometry y="52" width="160" height="8" as="geometry"/>
                </mxCell>
                <mxCell id="90" value="&lt;span style=&quot;color: rgb(0, 0, 0);&quot;&gt;step&lt;/span&gt;" style="text;strokeColor=none;fillColor=none;align=left;verticalAlign=top;spacingLeft=4;spacingRight=4;overflow=hidden;rotatable=0;points=[[0,0.5],[1,0.5]];portConstraint=eastwest;whiteSpace=wrap;html=1;" parent="87" vertex="1">
                    <mxGeometry y="60" width="160" height="26" as="geometry"/>
                </mxCell>
                <mxCell id="91" style="edgeStyle=none;html=1;exitX=1;exitY=0.5;exitDx=0;exitDy=0;entryX=0;entryY=0;entryDx=0;entryDy=0;" parent="1" source="88" target="82" edge="1">
                    <mxGeometry relative="1" as="geometry"/>
                </mxCell>
            </root>
        </mxGraphModel>
    </diagram>
    <diagram id="-ILC4vN3jUfRknQ8BKg5" name="第 2 页">
        <mxGraphModel dx="1132" dy="1825" grid="0" gridSize="10" guides="1" tooltips="1" connect="1" arrows="1" fold="1" page="0" pageScale="1" pageWidth="827" pageHeight="1169" background="#FFFFFF" math="0" shadow="0">
            <root>
                <mxCell id="0"/>
                <mxCell id="1" parent="0"/>
                <mxCell id="ttIu68DNXvmsdBVbo-tg-18" value="" style="rounded=0;whiteSpace=wrap;html=1;dashed=1;dashPattern=8 8;" vertex="1" parent="1">
                    <mxGeometry x="4736.5" y="-877" width="156.5" height="387" as="geometry"/>
                </mxCell>
                <mxCell id="iBepl6hOdqwXm7L_ZBVs-46" value="" style="shape=ext;double=1;rounded=0;whiteSpace=wrap;html=1;" parent="1" vertex="1">
                    <mxGeometry x="756" y="-678" width="322" height="82" as="geometry"/>
                </mxCell>
                <mxCell id="zDQlXV-ZxqxHICor5i1D-55" value="" style="rounded=1;whiteSpace=wrap;html=1;" parent="1" vertex="1">
                    <mxGeometry x="-250" y="-248" width="680" height="140" as="geometry"/>
                </mxCell>
                <mxCell id="zDQlXV-ZxqxHICor5i1D-53" value="" style="rounded=1;whiteSpace=wrap;html=1;" parent="1" vertex="1">
                    <mxGeometry x="-250" y="-430" width="680" height="140" as="geometry"/>
                </mxCell>
                <mxCell id="zDQlXV-ZxqxHICor5i1D-7" value="" style="rounded=1;whiteSpace=wrap;html=1;" parent="1" vertex="1">
                    <mxGeometry x="115" y="-414" width="290" height="104" as="geometry"/>
                </mxCell>
                <mxCell id="zXvHiTeVQNaDYu7OYg6f-1" value="&lt;b style=&quot;color: rgb(63, 63, 63);&quot;&gt;#LlamaDecoderLayer&lt;/b&gt;" style="swimlane;fontStyle=1;align=center;verticalAlign=top;childLayout=stackLayout;horizontal=1;startSize=26;horizontalStack=0;resizeParent=1;resizeParentMax=0;resizeLast=0;collapsible=1;marginBottom=0;whiteSpace=wrap;html=1;" parent="1" vertex="1">
                    <mxGeometry x="-220" y="-418" width="160" height="112" as="geometry"/>
                </mxCell>
                <mxCell id="zXvHiTeVQNaDYu7OYg6f-2" value="&lt;span style=&quot;color: rgb(63, 63, 63);&quot;&gt;self.self_attn&lt;/span&gt;" style="text;strokeColor=none;fillColor=none;align=left;verticalAlign=top;spacingLeft=4;spacingRight=4;overflow=hidden;rotatable=0;points=[[0,0.5],[1,0.5]];portConstraint=eastwest;whiteSpace=wrap;html=1;" parent="zXvHiTeVQNaDYu7OYg6f-1" vertex="1">
                    <mxGeometry y="26" width="160" height="26" as="geometry"/>
                </mxCell>
                <mxCell id="zXvHiTeVQNaDYu7OYg6f-3" value="self.mlp" style="text;strokeColor=none;fillColor=none;align=left;verticalAlign=top;spacingLeft=4;spacingRight=4;overflow=hidden;rotatable=0;points=[[0,0.5],[1,0.5]];portConstraint=eastwest;whiteSpace=wrap;html=1;" parent="zXvHiTeVQNaDYu7OYg6f-1" vertex="1">
                    <mxGeometry y="52" width="160" height="26" as="geometry"/>
                </mxCell>
                <mxCell id="zXvHiTeVQNaDYu7OYg6f-4" value="" style="line;strokeWidth=1;fillColor=none;align=left;verticalAlign=middle;spacingTop=-1;spacingLeft=3;spacingRight=3;rotatable=0;labelPosition=right;points=[];portConstraint=eastwest;strokeColor=inherit;" parent="zXvHiTeVQNaDYu7OYg6f-1" vertex="1">
                    <mxGeometry y="78" width="160" height="8" as="geometry"/>
                </mxCell>
                <mxCell id="zXvHiTeVQNaDYu7OYg6f-5" value="forward" style="text;strokeColor=none;fillColor=none;align=left;verticalAlign=top;spacingLeft=4;spacingRight=4;overflow=hidden;rotatable=0;points=[[0,0.5],[1,0.5]];portConstraint=eastwest;whiteSpace=wrap;html=1;" parent="zXvHiTeVQNaDYu7OYg6f-1" vertex="1">
                    <mxGeometry y="86" width="160" height="26" as="geometry"/>
                </mxCell>
                <mxCell id="zDQlXV-ZxqxHICor5i1D-1" value="hidden_states: torch.Size([num_len, 4096])" style="text;whiteSpace=wrap;" parent="1" vertex="1">
                    <mxGeometry x="140" y="-280" width="250" height="30" as="geometry"/>
                </mxCell>
                <mxCell id="zDQlXV-ZxqxHICor5i1D-2" value="inputs_embeds: torch.Size([num_len, 4096])" style="text;whiteSpace=wrap;" parent="1" vertex="1">
                    <mxGeometry x="140" y="-480" width="250" height="30" as="geometry"/>
                </mxCell>
                <mxCell id="zDQlXV-ZxqxHICor5i1D-5" value="self-attn" style="rounded=1;whiteSpace=wrap;html=1;fillColor=#d5e8d4;strokeColor=#82b366;" parent="1" vertex="1">
                    <mxGeometry x="170" y="-399" width="180" height="30" as="geometry"/>
                </mxCell>
                <mxCell id="zDQlXV-ZxqxHICor5i1D-6" value="mlp" style="rounded=1;whiteSpace=wrap;html=1;" parent="1" vertex="1">
                    <mxGeometry x="170" y="-350" width="180" height="30" as="geometry"/>
                </mxCell>
                <mxCell id="zDQlXV-ZxqxHICor5i1D-8" value="" style="rounded=1;whiteSpace=wrap;html=1;" parent="1" vertex="1">
                    <mxGeometry x="115" y="-230" width="290" height="104" as="geometry"/>
                </mxCell>
                <mxCell id="zDQlXV-ZxqxHICor5i1D-9" value="self-attn" style="rounded=1;whiteSpace=wrap;html=1;fillColor=#d5e8d4;strokeColor=#82b366;" parent="1" vertex="1">
                    <mxGeometry x="170" y="-215" width="180" height="30" as="geometry"/>
                </mxCell>
                <mxCell id="zDQlXV-ZxqxHICor5i1D-10" value="mlp" style="rounded=1;whiteSpace=wrap;html=1;" parent="1" vertex="1">
                    <mxGeometry x="170" y="-166" width="180" height="30" as="geometry"/>
                </mxCell>
                <mxCell id="zDQlXV-ZxqxHICor5i1D-11" value="hidden_states: torch.Size([num_len, 4096])" style="text;whiteSpace=wrap;" parent="1" vertex="1">
                    <mxGeometry x="135" y="-100" width="250" height="30" as="geometry"/>
                </mxCell>
                <mxCell id="zDQlXV-ZxqxHICor5i1D-12" value="" style="endArrow=none;dashed=1;html=1;dashPattern=1 3;strokeWidth=2;" parent="1" edge="1">
                    <mxGeometry width="50" height="50" relative="1" as="geometry">
                        <mxPoint x="250" y="-20" as="sourcePoint"/>
                        <mxPoint x="250" y="-60" as="targetPoint"/>
                    </mxGeometry>
                </mxCell>
                <mxCell id="zDQlXV-ZxqxHICor5i1D-20" style="edgeStyle=none;html=1;exitX=0.5;exitY=1;exitDx=0;exitDy=0;entryX=0.5;entryY=0;entryDx=0;entryDy=0;" parent="1" source="zDQlXV-ZxqxHICor5i1D-14" target="zDQlXV-ZxqxHICor5i1D-19" edge="1">
                    <mxGeometry relative="1" as="geometry">
                        <mxPoint x="788.5" y="-456" as="targetPoint"/>
                    </mxGeometry>
                </mxCell>
                <mxCell id="zDQlXV-ZxqxHICor5i1D-28" style="edgeStyle=none;html=1;exitX=0.5;exitY=1;exitDx=0;exitDy=0;entryX=0.5;entryY=0;entryDx=0;entryDy=0;" parent="1" source="zDQlXV-ZxqxHICor5i1D-14" target="zDQlXV-ZxqxHICor5i1D-26" edge="1">
                    <mxGeometry relative="1" as="geometry"/>
                </mxCell>
                <mxCell id="zDQlXV-ZxqxHICor5i1D-29" style="edgeStyle=none;html=1;exitX=0.5;exitY=1;exitDx=0;exitDy=0;entryX=0.5;entryY=0;entryDx=0;entryDy=0;" parent="1" source="zDQlXV-ZxqxHICor5i1D-14" target="zDQlXV-ZxqxHICor5i1D-27" edge="1">
                    <mxGeometry relative="1" as="geometry"/>
                </mxCell>
                <mxCell id="zDQlXV-ZxqxHICor5i1D-14" value="qkv: torch.Size([num_len, 6144])" style="text;whiteSpace=wrap;" parent="1" vertex="1">
                    <mxGeometry x="696" y="-506" width="185" height="30" as="geometry"/>
                </mxCell>
                <mxCell id="zDQlXV-ZxqxHICor5i1D-16" style="edgeStyle=none;html=1;entryX=0.5;entryY=0;entryDx=0;entryDy=0;" parent="1" source="zDQlXV-ZxqxHICor5i1D-15" target="zDQlXV-ZxqxHICor5i1D-14" edge="1">
                    <mxGeometry relative="1" as="geometry"/>
                </mxCell>
                <mxCell id="zDQlXV-ZxqxHICor5i1D-15" value="hidden_states: torch.Size([num_len, 4096])" style="text;whiteSpace=wrap;" parent="1" vertex="1">
                    <mxGeometry x="663.5" y="-566" width="250" height="30" as="geometry"/>
                </mxCell>
                <mxCell id="zDQlXV-ZxqxHICor5i1D-22" style="edgeStyle=none;html=1;entryX=0.5;entryY=0;entryDx=0;entryDy=0;" parent="1" source="zDQlXV-ZxqxHICor5i1D-19" target="zDQlXV-ZxqxHICor5i1D-30" edge="1">
                    <mxGeometry relative="1" as="geometry">
                        <mxPoint x="789" y="-406" as="targetPoint"/>
                    </mxGeometry>
                </mxCell>
                <mxCell id="zDQlXV-ZxqxHICor5i1D-19" value="q: torch.Size([num_len, 4096])" style="text;whiteSpace=wrap;align=center;verticalAlign=middle;" parent="1" vertex="1">
                    <mxGeometry x="696" y="-450" width="184.38" height="24" as="geometry"/>
                </mxCell>
                <mxCell id="zDQlXV-ZxqxHICor5i1D-34" style="edgeStyle=none;html=1;entryX=0.5;entryY=0;entryDx=0;entryDy=0;" parent="1" source="zDQlXV-ZxqxHICor5i1D-26" target="zDQlXV-ZxqxHICor5i1D-31" edge="1">
                    <mxGeometry relative="1" as="geometry"/>
                </mxCell>
                <mxCell id="zDQlXV-ZxqxHICor5i1D-26" value="k: torch.Size([num_len, 1024])" style="text;whiteSpace=wrap;align=center;verticalAlign=middle;" parent="1" vertex="1">
                    <mxGeometry x="881" y="-450" width="184.38" height="24" as="geometry"/>
                </mxCell>
                <mxCell id="zDQlXV-ZxqxHICor5i1D-39" style="edgeStyle=none;html=1;exitX=0.5;exitY=1;exitDx=0;exitDy=0;entryX=0.5;entryY=0;entryDx=0;entryDy=0;" parent="1" source="zDQlXV-ZxqxHICor5i1D-27" target="zDQlXV-ZxqxHICor5i1D-36" edge="1">
                    <mxGeometry relative="1" as="geometry"/>
                </mxCell>
                <mxCell id="zDQlXV-ZxqxHICor5i1D-27" value="v: torch.Size([num_len, 1024])" style="text;whiteSpace=wrap;align=center;verticalAlign=middle;" parent="1" vertex="1">
                    <mxGeometry x="1076" y="-450" width="184.38" height="24" as="geometry"/>
                </mxCell>
                <mxCell id="zDQlXV-ZxqxHICor5i1D-37" style="edgeStyle=none;html=1;exitX=0.5;exitY=1;exitDx=0;exitDy=0;entryX=0.5;entryY=0;entryDx=0;entryDy=0;" parent="1" source="zDQlXV-ZxqxHICor5i1D-30" target="zDQlXV-ZxqxHICor5i1D-36" edge="1">
                    <mxGeometry relative="1" as="geometry"/>
                </mxCell>
                <mxCell id="zDQlXV-ZxqxHICor5i1D-30" value="q: torch.Size([num_len, 4096])" style="text;whiteSpace=wrap;align=center;verticalAlign=middle;" parent="1" vertex="1">
                    <mxGeometry x="696" y="-400" width="184.38" height="24" as="geometry"/>
                </mxCell>
                <mxCell id="zDQlXV-ZxqxHICor5i1D-38" style="edgeStyle=none;html=1;exitX=0.5;exitY=1;exitDx=0;exitDy=0;entryX=0.5;entryY=0;entryDx=0;entryDy=0;" parent="1" source="zDQlXV-ZxqxHICor5i1D-31" target="zDQlXV-ZxqxHICor5i1D-36" edge="1">
                    <mxGeometry relative="1" as="geometry">
                        <mxPoint x="973.3023255813955" y="-356" as="targetPoint"/>
                    </mxGeometry>
                </mxCell>
                <mxCell id="zDQlXV-ZxqxHICor5i1D-31" value="k: torch.Size([num_len, 1024])" style="text;whiteSpace=wrap;align=center;verticalAlign=middle;" parent="1" vertex="1">
                    <mxGeometry x="881" y="-400" width="184.38" height="24" as="geometry"/>
                </mxCell>
                <mxCell id="zDQlXV-ZxqxHICor5i1D-48" style="edgeStyle=none;html=1;exitX=0.5;exitY=1;exitDx=0;exitDy=0;entryX=0.5;entryY=0;entryDx=0;entryDy=0;" parent="1" source="zDQlXV-ZxqxHICor5i1D-36" target="zDQlXV-ZxqxHICor5i1D-47" edge="1">
                    <mxGeometry relative="1" as="geometry"/>
                </mxCell>
                <mxCell id="zDQlXV-ZxqxHICor5i1D-36" value="attention calculate" style="rounded=1;whiteSpace=wrap;html=1;" parent="1" vertex="1">
                    <mxGeometry x="895.69" y="-333.5" width="155" height="25" as="geometry"/>
                </mxCell>
                <mxCell id="zDQlXV-ZxqxHICor5i1D-42" value="&lt;b style=&quot;color: rgb(63, 63, 63);&quot;&gt;#LlamaDecoderLayer&lt;/b&gt;" style="swimlane;fontStyle=1;align=center;verticalAlign=top;childLayout=stackLayout;horizontal=1;startSize=26;horizontalStack=0;resizeParent=1;resizeParentMax=0;resizeLast=0;collapsible=1;marginBottom=0;whiteSpace=wrap;html=1;" parent="1" vertex="1">
                    <mxGeometry x="-220" y="-234" width="160" height="112" as="geometry"/>
                </mxCell>
                <mxCell id="zDQlXV-ZxqxHICor5i1D-43" value="&lt;span style=&quot;color: rgb(63, 63, 63);&quot;&gt;self.self_attn&lt;/span&gt;" style="text;strokeColor=none;fillColor=none;align=left;verticalAlign=top;spacingLeft=4;spacingRight=4;overflow=hidden;rotatable=0;points=[[0,0.5],[1,0.5]];portConstraint=eastwest;whiteSpace=wrap;html=1;" parent="zDQlXV-ZxqxHICor5i1D-42" vertex="1">
                    <mxGeometry y="26" width="160" height="26" as="geometry"/>
                </mxCell>
                <mxCell id="zDQlXV-ZxqxHICor5i1D-44" value="self.mlp" style="text;strokeColor=none;fillColor=none;align=left;verticalAlign=top;spacingLeft=4;spacingRight=4;overflow=hidden;rotatable=0;points=[[0,0.5],[1,0.5]];portConstraint=eastwest;whiteSpace=wrap;html=1;" parent="zDQlXV-ZxqxHICor5i1D-42" vertex="1">
                    <mxGeometry y="52" width="160" height="26" as="geometry"/>
                </mxCell>
                <mxCell id="zDQlXV-ZxqxHICor5i1D-45" value="" style="line;strokeWidth=1;fillColor=none;align=left;verticalAlign=middle;spacingTop=-1;spacingLeft=3;spacingRight=3;rotatable=0;labelPosition=right;points=[];portConstraint=eastwest;strokeColor=inherit;" parent="zDQlXV-ZxqxHICor5i1D-42" vertex="1">
                    <mxGeometry y="78" width="160" height="8" as="geometry"/>
                </mxCell>
                <mxCell id="zDQlXV-ZxqxHICor5i1D-46" value="forward" style="text;strokeColor=none;fillColor=none;align=left;verticalAlign=top;spacingLeft=4;spacingRight=4;overflow=hidden;rotatable=0;points=[[0,0.5],[1,0.5]];portConstraint=eastwest;whiteSpace=wrap;html=1;" parent="zDQlXV-ZxqxHICor5i1D-42" vertex="1">
                    <mxGeometry y="86" width="160" height="26" as="geometry"/>
                </mxCell>
                <mxCell id="zDQlXV-ZxqxHICor5i1D-47" value="attn_output: torch.Size([num_len, 4096])" style="text;whiteSpace=wrap;align=center;verticalAlign=middle;" parent="1" vertex="1">
                    <mxGeometry x="863.19" y="-286" width="220" height="30" as="geometry"/>
                </mxCell>
                <mxCell id="zDQlXV-ZxqxHICor5i1D-56" value="4096 : num_head ( 32 )&amp;nbsp;* head_size ( 128 )" style="text;html=1;align=center;verticalAlign=middle;resizable=0;points=[];autosize=1;strokeColor=none;fillColor=none;" parent="1" vertex="1">
                    <mxGeometry x="807" y="-668" width="250" height="30" as="geometry"/>
                </mxCell>
                <mxCell id="zDQlXV-ZxqxHICor5i1D-57" value="1024 : num_kv_head ( 8 )&amp;nbsp;* head_size ( 128 )" style="text;html=1;align=center;verticalAlign=middle;resizable=0;points=[];autosize=1;strokeColor=none;fillColor=none;" parent="1" vertex="1">
                    <mxGeometry x="807" y="-638" width="260" height="30" as="geometry"/>
                </mxCell>
                <mxCell id="zDQlXV-ZxqxHICor5i1D-58" value="GQA:" style="text;html=1;align=center;verticalAlign=middle;resizable=0;points=[];autosize=1;strokeColor=none;fillColor=none;" parent="1" vertex="1">
                    <mxGeometry x="764" y="-653" width="50" height="30" as="geometry"/>
                </mxCell>
                <mxCell id="iBepl6hOdqwXm7L_ZBVs-1" style="edgeStyle=none;html=1;exitX=0.5;exitY=1;exitDx=0;exitDy=0;entryX=0.5;entryY=0;entryDx=0;entryDy=0;" parent="1" source="iBepl6hOdqwXm7L_ZBVs-4" target="iBepl6hOdqwXm7L_ZBVs-8" edge="1">
                    <mxGeometry relative="1" as="geometry">
                        <mxPoint x="1798" y="-461" as="targetPoint"/>
                    </mxGeometry>
                </mxCell>
                <mxCell id="iBepl6hOdqwXm7L_ZBVs-2" style="edgeStyle=none;html=1;exitX=0.5;exitY=1;exitDx=0;exitDy=0;entryX=0.5;entryY=0;entryDx=0;entryDy=0;" parent="1" source="iBepl6hOdqwXm7L_ZBVs-4" target="iBepl6hOdqwXm7L_ZBVs-10" edge="1">
                    <mxGeometry relative="1" as="geometry"/>
                </mxCell>
                <mxCell id="iBepl6hOdqwXm7L_ZBVs-3" style="edgeStyle=none;html=1;exitX=0.5;exitY=1;exitDx=0;exitDy=0;entryX=0.5;entryY=0;entryDx=0;entryDy=0;" parent="1" source="iBepl6hOdqwXm7L_ZBVs-4" target="iBepl6hOdqwXm7L_ZBVs-12" edge="1">
                    <mxGeometry relative="1" as="geometry"/>
                </mxCell>
                <mxCell id="iBepl6hOdqwXm7L_ZBVs-4" value="qkv: torch.Size([item_size, 6144])" style="text;whiteSpace=wrap;" parent="1" vertex="1">
                    <mxGeometry x="1705.5" y="-511" width="185" height="30" as="geometry"/>
                </mxCell>
                <mxCell id="iBepl6hOdqwXm7L_ZBVs-5" style="edgeStyle=none;html=1;entryX=0.5;entryY=0;entryDx=0;entryDy=0;" parent="1" source="iBepl6hOdqwXm7L_ZBVs-6" target="iBepl6hOdqwXm7L_ZBVs-4" edge="1">
                    <mxGeometry relative="1" as="geometry"/>
                </mxCell>
                <mxCell id="iBepl6hOdqwXm7L_ZBVs-6" value="hidden_states: torch.Size([item_size, 4096])" style="text;whiteSpace=wrap;" parent="1" vertex="1">
                    <mxGeometry x="1673" y="-571" width="250" height="30" as="geometry"/>
                </mxCell>
                <mxCell id="iBepl6hOdqwXm7L_ZBVs-7" style="edgeStyle=none;html=1;entryX=0.5;entryY=0;entryDx=0;entryDy=0;" parent="1" source="iBepl6hOdqwXm7L_ZBVs-8" target="iBepl6hOdqwXm7L_ZBVs-14" edge="1">
                    <mxGeometry relative="1" as="geometry">
                        <mxPoint x="1798.5" y="-411" as="targetPoint"/>
                    </mxGeometry>
                </mxCell>
                <mxCell id="iBepl6hOdqwXm7L_ZBVs-8" value="q: torch.Size([item_size, 4096])" style="text;whiteSpace=wrap;align=center;verticalAlign=middle;" parent="1" vertex="1">
                    <mxGeometry x="1705.5" y="-455" width="184.38" height="24" as="geometry"/>
                </mxCell>
                <mxCell id="iBepl6hOdqwXm7L_ZBVs-9" style="edgeStyle=none;html=1;entryX=0.5;entryY=0;entryDx=0;entryDy=0;" parent="1" source="iBepl6hOdqwXm7L_ZBVs-10" target="iBepl6hOdqwXm7L_ZBVs-16" edge="1">
                    <mxGeometry relative="1" as="geometry"/>
                </mxCell>
                <mxCell id="iBepl6hOdqwXm7L_ZBVs-10" value="k: torch.Size([item_size, 1024])" style="text;whiteSpace=wrap;align=center;verticalAlign=middle;" parent="1" vertex="1">
                    <mxGeometry x="1890.5" y="-455" width="184.38" height="24" as="geometry"/>
                </mxCell>
                <mxCell id="iBepl6hOdqwXm7L_ZBVs-11" style="edgeStyle=none;html=1;exitX=0.5;exitY=1;exitDx=0;exitDy=0;entryX=0.5;entryY=0;entryDx=0;entryDy=0;" parent="1" source="iBepl6hOdqwXm7L_ZBVs-12" target="iBepl6hOdqwXm7L_ZBVs-18" edge="1">
                    <mxGeometry relative="1" as="geometry"/>
                </mxCell>
                <mxCell id="iBepl6hOdqwXm7L_ZBVs-12" value="v: torch.Size([item_size, 1024])" style="text;whiteSpace=wrap;align=center;verticalAlign=middle;" parent="1" vertex="1">
                    <mxGeometry x="2085.5" y="-455" width="184.38" height="24" as="geometry"/>
                </mxCell>
                <mxCell id="iBepl6hOdqwXm7L_ZBVs-13" style="edgeStyle=none;html=1;exitX=0.5;exitY=1;exitDx=0;exitDy=0;entryX=0.5;entryY=0;entryDx=0;entryDy=0;" parent="1" source="iBepl6hOdqwXm7L_ZBVs-14" target="iBepl6hOdqwXm7L_ZBVs-18" edge="1">
                    <mxGeometry relative="1" as="geometry"/>
                </mxCell>
                <mxCell id="iBepl6hOdqwXm7L_ZBVs-14" value="q: torch.Size([item_size, 4096])" style="text;whiteSpace=wrap;align=center;verticalAlign=middle;" parent="1" vertex="1">
                    <mxGeometry x="1705.5" y="-405" width="184.38" height="24" as="geometry"/>
                </mxCell>
                <mxCell id="iBepl6hOdqwXm7L_ZBVs-15" style="edgeStyle=none;html=1;exitX=0.5;exitY=1;exitDx=0;exitDy=0;entryX=0.5;entryY=0;entryDx=0;entryDy=0;" parent="1" source="iBepl6hOdqwXm7L_ZBVs-16" target="iBepl6hOdqwXm7L_ZBVs-18" edge="1">
                    <mxGeometry relative="1" as="geometry">
                        <mxPoint x="1982.8023255813955" y="-361" as="targetPoint"/>
                    </mxGeometry>
                </mxCell>
                <mxCell id="iBepl6hOdqwXm7L_ZBVs-16" value="k: torch.Size([item_size, 1024])" style="text;whiteSpace=wrap;align=center;verticalAlign=middle;" parent="1" vertex="1">
                    <mxGeometry x="1890.5" y="-405" width="184.38" height="24" as="geometry"/>
                </mxCell>
                <mxCell id="iBepl6hOdqwXm7L_ZBVs-17" style="edgeStyle=none;html=1;exitX=0.5;exitY=1;exitDx=0;exitDy=0;entryX=0.5;entryY=0;entryDx=0;entryDy=0;" parent="1" source="iBepl6hOdqwXm7L_ZBVs-18" target="iBepl6hOdqwXm7L_ZBVs-19" edge="1">
                    <mxGeometry relative="1" as="geometry"/>
                </mxCell>
                <mxCell id="iBepl6hOdqwXm7L_ZBVs-18" value="attention calculate" style="rounded=1;whiteSpace=wrap;html=1;" parent="1" vertex="1">
                    <mxGeometry x="1905.19" y="-338.5" width="155" height="25" as="geometry"/>
                </mxCell>
                <mxCell id="iBepl6hOdqwXm7L_ZBVs-19" value="attn_output: torch.Size([item_size, 4096])" style="text;whiteSpace=wrap;align=center;verticalAlign=middle;" parent="1" vertex="1">
                    <mxGeometry x="1857.03" y="-290" width="251.31" height="30" as="geometry"/>
                </mxCell>
                <mxCell id="iBepl6hOdqwXm7L_ZBVs-28" value="" style="shape=curlyBracket;whiteSpace=wrap;html=1;rounded=1;labelPosition=left;verticalLabelPosition=middle;align=right;verticalAlign=middle;" parent="1" vertex="1">
                    <mxGeometry x="1638" y="-546" width="20" height="46" as="geometry"/>
                </mxCell>
                <mxCell id="iBepl6hOdqwXm7L_ZBVs-29" value="get qkv" style="text;html=1;align=center;verticalAlign=middle;resizable=0;points=[];autosize=1;strokeColor=none;fillColor=none;" parent="1" vertex="1">
                    <mxGeometry x="1581" y="-536" width="57" height="26" as="geometry"/>
                </mxCell>
                <mxCell id="iBepl6hOdqwXm7L_ZBVs-32" value="" style="shape=curlyBracket;whiteSpace=wrap;html=1;rounded=1;labelPosition=left;verticalLabelPosition=middle;align=right;verticalAlign=middle;" parent="1" vertex="1">
                    <mxGeometry x="1670" y="-492" width="20" height="46" as="geometry"/>
                </mxCell>
                <mxCell id="iBepl6hOdqwXm7L_ZBVs-33" value="qkv spilt" style="text;html=1;align=center;verticalAlign=middle;resizable=0;points=[];autosize=1;strokeColor=none;fillColor=none;" parent="1" vertex="1">
                    <mxGeometry x="1611" y="-482" width="61" height="26" as="geometry"/>
                </mxCell>
                <mxCell id="iBepl6hOdqwXm7L_ZBVs-34" value="" style="shape=curlyBracket;whiteSpace=wrap;html=1;rounded=1;labelPosition=left;verticalLabelPosition=middle;align=right;verticalAlign=middle;" parent="1" vertex="1">
                    <mxGeometry x="1670" y="-438" width="20" height="46" as="geometry"/>
                </mxCell>
                <mxCell id="iBepl6hOdqwXm7L_ZBVs-35" value="rope" style="text;html=1;align=center;verticalAlign=middle;resizable=0;points=[];autosize=1;strokeColor=none;fillColor=none;" parent="1" vertex="1">
                    <mxGeometry x="1621" y="-428" width="42" height="26" as="geometry"/>
                </mxCell>
                <mxCell id="iBepl6hOdqwXm7L_ZBVs-36" value="" style="shape=curlyBracket;whiteSpace=wrap;html=1;rounded=1;labelPosition=left;verticalLabelPosition=middle;align=right;verticalAlign=middle;" parent="1" vertex="1">
                    <mxGeometry x="1670" y="-374" width="20" height="107" as="geometry"/>
                </mxCell>
                <mxCell id="iBepl6hOdqwXm7L_ZBVs-37" value="get output" style="text;html=1;align=center;verticalAlign=middle;resizable=0;points=[];autosize=1;strokeColor=none;fillColor=none;" parent="1" vertex="1">
                    <mxGeometry x="1595" y="-333.5" width="71" height="26" as="geometry"/>
                </mxCell>
                <mxCell id="iBepl6hOdqwXm7L_ZBVs-38" value="" style="shape=curlyBracket;whiteSpace=wrap;html=1;rounded=1;labelPosition=left;verticalLabelPosition=middle;align=right;verticalAlign=middle;" parent="1" vertex="1">
                    <mxGeometry x="631" y="-546" width="20" height="46" as="geometry"/>
                </mxCell>
                <mxCell id="iBepl6hOdqwXm7L_ZBVs-39" value="get qkv" style="text;html=1;align=center;verticalAlign=middle;resizable=0;points=[];autosize=1;strokeColor=none;fillColor=none;" parent="1" vertex="1">
                    <mxGeometry x="574" y="-536" width="57" height="26" as="geometry"/>
                </mxCell>
                <mxCell id="iBepl6hOdqwXm7L_ZBVs-40" value="" style="shape=curlyBracket;whiteSpace=wrap;html=1;rounded=1;labelPosition=left;verticalLabelPosition=middle;align=right;verticalAlign=middle;" parent="1" vertex="1">
                    <mxGeometry x="663" y="-492" width="20" height="46" as="geometry"/>
                </mxCell>
                <mxCell id="iBepl6hOdqwXm7L_ZBVs-41" value="qkv spilt" style="text;html=1;align=center;verticalAlign=middle;resizable=0;points=[];autosize=1;strokeColor=none;fillColor=none;" parent="1" vertex="1">
                    <mxGeometry x="604" y="-482" width="61" height="26" as="geometry"/>
                </mxCell>
                <mxCell id="iBepl6hOdqwXm7L_ZBVs-42" value="" style="shape=curlyBracket;whiteSpace=wrap;html=1;rounded=1;labelPosition=left;verticalLabelPosition=middle;align=right;verticalAlign=middle;" parent="1" vertex="1">
                    <mxGeometry x="663" y="-438" width="20" height="46" as="geometry"/>
                </mxCell>
                <mxCell id="iBepl6hOdqwXm7L_ZBVs-43" value="rope" style="text;html=1;align=center;verticalAlign=middle;resizable=0;points=[];autosize=1;strokeColor=none;fillColor=none;" parent="1" vertex="1">
                    <mxGeometry x="614" y="-428" width="42" height="26" as="geometry"/>
                </mxCell>
                <mxCell id="iBepl6hOdqwXm7L_ZBVs-44" value="" style="shape=curlyBracket;whiteSpace=wrap;html=1;rounded=1;labelPosition=left;verticalLabelPosition=middle;align=right;verticalAlign=middle;" parent="1" vertex="1">
                    <mxGeometry x="663" y="-374" width="20" height="107" as="geometry"/>
                </mxCell>
                <mxCell id="iBepl6hOdqwXm7L_ZBVs-45" value="get output" style="text;html=1;align=center;verticalAlign=middle;resizable=0;points=[];autosize=1;strokeColor=none;fillColor=none;" parent="1" vertex="1">
                    <mxGeometry x="588" y="-333.5" width="71" height="26" as="geometry"/>
                </mxCell>
                <mxCell id="iBepl6hOdqwXm7L_ZBVs-47" value="" style="shape=ext;double=1;rounded=0;whiteSpace=wrap;html=1;" parent="1" vertex="1">
                    <mxGeometry x="1808" y="-678" width="322" height="82" as="geometry"/>
                </mxCell>
                <mxCell id="iBepl6hOdqwXm7L_ZBVs-48" value="4096 : num_head ( 32 )&amp;nbsp;* head_size ( 128 )" style="text;html=1;align=center;verticalAlign=middle;resizable=0;points=[];autosize=1;strokeColor=none;fillColor=none;" parent="1" vertex="1">
                    <mxGeometry x="1859" y="-668" width="250" height="30" as="geometry"/>
                </mxCell>
                <mxCell id="iBepl6hOdqwXm7L_ZBVs-49" value="1024 : num_kv_head ( 8 )&amp;nbsp;* head_size ( 128 )" style="text;html=1;align=center;verticalAlign=middle;resizable=0;points=[];autosize=1;strokeColor=none;fillColor=none;" parent="1" vertex="1">
                    <mxGeometry x="1859" y="-638" width="260" height="30" as="geometry"/>
                </mxCell>
                <mxCell id="iBepl6hOdqwXm7L_ZBVs-50" value="GQA:" style="text;html=1;align=center;verticalAlign=middle;resizable=0;points=[];autosize=1;strokeColor=none;fillColor=none;" parent="1" vertex="1">
                    <mxGeometry x="1816" y="-653" width="50" height="30" as="geometry"/>
                </mxCell>
                <mxCell id="iBepl6hOdqwXm7L_ZBVs-52" style="edgeStyle=none;html=1;exitX=0.5;exitY=1;exitDx=0;exitDy=0;entryX=0.5;entryY=0;entryDx=0;entryDy=0;" parent="1" source="iBepl6hOdqwXm7L_ZBVs-55" target="iBepl6hOdqwXm7L_ZBVs-59" edge="1">
                    <mxGeometry relative="1" as="geometry">
                        <mxPoint x="3412" y="-411.75" as="targetPoint"/>
                    </mxGeometry>
                </mxCell>
                <mxCell id="iBepl6hOdqwXm7L_ZBVs-53" style="edgeStyle=none;html=1;exitX=0.5;exitY=1;exitDx=0;exitDy=0;entryX=0.5;entryY=0;entryDx=0;entryDy=0;" parent="1" source="iBepl6hOdqwXm7L_ZBVs-55" target="iBepl6hOdqwXm7L_ZBVs-61" edge="1">
                    <mxGeometry relative="1" as="geometry"/>
                </mxCell>
                <mxCell id="iBepl6hOdqwXm7L_ZBVs-54" style="edgeStyle=none;html=1;exitX=0.5;exitY=1;exitDx=0;exitDy=0;entryX=0.5;entryY=0;entryDx=0;entryDy=0;" parent="1" source="iBepl6hOdqwXm7L_ZBVs-55" target="iBepl6hOdqwXm7L_ZBVs-63" edge="1">
                    <mxGeometry relative="1" as="geometry"/>
                </mxCell>
                <mxCell id="iBepl6hOdqwXm7L_ZBVs-55" value="qkv: torch.Size([num_imp_token, 6144])" style="text;whiteSpace=wrap;" parent="1" vertex="1">
                    <mxGeometry x="3317.5" y="-462.75" width="234.5" height="30" as="geometry"/>
                </mxCell>
                <mxCell id="iBepl6hOdqwXm7L_ZBVs-56" style="edgeStyle=none;html=1;entryX=0.5;entryY=0;entryDx=0;entryDy=0;" parent="1" source="iBepl6hOdqwXm7L_ZBVs-57" target="iBepl6hOdqwXm7L_ZBVs-55" edge="1">
                    <mxGeometry relative="1" as="geometry"/>
                </mxCell>
                <mxCell id="iBepl6hOdqwXm7L_ZBVs-57" value="hidden_states: torch.Size([num_imp_token, 4096])" style="text;whiteSpace=wrap;" parent="1" vertex="1">
                    <mxGeometry x="3287" y="-521.75" width="294" height="30" as="geometry"/>
                </mxCell>
                <mxCell id="iBepl6hOdqwXm7L_ZBVs-58" style="edgeStyle=none;html=1;entryX=0.5;entryY=0;entryDx=0;entryDy=0;" parent="1" source="iBepl6hOdqwXm7L_ZBVs-59" target="iBepl6hOdqwXm7L_ZBVs-65" edge="1">
                    <mxGeometry relative="1" as="geometry">
                        <mxPoint x="3412.5" y="-361.75" as="targetPoint"/>
                    </mxGeometry>
                </mxCell>
                <mxCell id="iBepl6hOdqwXm7L_ZBVs-59" value="q: torch.Size([num_imp_token, 4096])" style="text;whiteSpace=wrap;align=center;verticalAlign=middle;" parent="1" vertex="1">
                    <mxGeometry x="3319.5" y="-402.75" width="230.5" height="24" as="geometry"/>
                </mxCell>
                <mxCell id="iBepl6hOdqwXm7L_ZBVs-60" style="edgeStyle=none;html=1;entryX=0.5;entryY=0;entryDx=0;entryDy=0;" parent="1" source="iBepl6hOdqwXm7L_ZBVs-61" target="iBepl6hOdqwXm7L_ZBVs-120" edge="1">
                    <mxGeometry relative="1" as="geometry">
                        <mxPoint x="3668" y="-348" as="targetPoint"/>
                    </mxGeometry>
                </mxCell>
                <mxCell id="iBepl6hOdqwXm7L_ZBVs-61" value="k: torch.Size([num_imp_token, 1024])" style="text;whiteSpace=wrap;align=center;verticalAlign=middle;" parent="1" vertex="1">
                    <mxGeometry x="3550" y="-402.75" width="231.5" height="24" as="geometry"/>
                </mxCell>
                <mxCell id="iBepl6hOdqwXm7L_ZBVs-62" style="edgeStyle=none;html=1;exitX=0.5;exitY=1;exitDx=0;exitDy=0;entryX=0.5;entryY=0;entryDx=0;entryDy=0;" parent="1" source="iBepl6hOdqwXm7L_ZBVs-123" target="iBepl6hOdqwXm7L_ZBVs-69" edge="1">
                    <mxGeometry relative="1" as="geometry"/>
                </mxCell>
                <mxCell id="iBepl6hOdqwXm7L_ZBVs-124" style="edgeStyle=none;html=1;exitX=0.5;exitY=1;exitDx=0;exitDy=0;entryX=0.5;entryY=0;entryDx=0;entryDy=0;" parent="1" source="iBepl6hOdqwXm7L_ZBVs-63" target="iBepl6hOdqwXm7L_ZBVs-123" edge="1">
                    <mxGeometry relative="1" as="geometry"/>
                </mxCell>
                <mxCell id="iBepl6hOdqwXm7L_ZBVs-63" value="v: torch.Size([num_imp_token, 1024])" style="text;whiteSpace=wrap;align=center;verticalAlign=middle;" parent="1" vertex="1">
                    <mxGeometry x="3793" y="-402.75" width="233" height="24" as="geometry"/>
                </mxCell>
                <mxCell id="iBepl6hOdqwXm7L_ZBVs-64" style="edgeStyle=none;html=1;exitX=0.5;exitY=1;exitDx=0;exitDy=0;entryX=0.5;entryY=0;entryDx=0;entryDy=0;" parent="1" source="iBepl6hOdqwXm7L_ZBVs-65" target="iBepl6hOdqwXm7L_ZBVs-69" edge="1">
                    <mxGeometry relative="1" as="geometry"/>
                </mxCell>
                <mxCell id="iBepl6hOdqwXm7L_ZBVs-65" value="q: torch.Size([num_imp_token, 4096])" style="text;whiteSpace=wrap;align=center;verticalAlign=middle;fontStyle=1" parent="1" vertex="1">
                    <mxGeometry x="3322.0299999999997" y="-267" width="225.44" height="24" as="geometry"/>
                </mxCell>
                <mxCell id="iBepl6hOdqwXm7L_ZBVs-66" style="edgeStyle=none;html=1;exitX=0.5;exitY=1;exitDx=0;exitDy=0;entryX=0.5;entryY=0;entryDx=0;entryDy=0;" parent="1" source="iBepl6hOdqwXm7L_ZBVs-67" target="iBepl6hOdqwXm7L_ZBVs-69" edge="1">
                    <mxGeometry relative="1" as="geometry">
                        <mxPoint x="3596.8023255813955" y="-311.75" as="targetPoint"/>
                    </mxGeometry>
                </mxCell>
                <mxCell id="iBepl6hOdqwXm7L_ZBVs-67" value="k: torch.Size([prompt_len, 1024])" style="text;whiteSpace=wrap;align=center;verticalAlign=middle;fontStyle=1" parent="1" vertex="1">
                    <mxGeometry x="3554" y="-267" width="225" height="24" as="geometry"/>
                </mxCell>
                <mxCell id="iBepl6hOdqwXm7L_ZBVs-68" style="edgeStyle=none;html=1;exitX=0.5;exitY=1;exitDx=0;exitDy=0;entryX=0.5;entryY=0;entryDx=0;entryDy=0;" parent="1" source="iBepl6hOdqwXm7L_ZBVs-69" target="iBepl6hOdqwXm7L_ZBVs-70" edge="1">
                    <mxGeometry relative="1" as="geometry"/>
                </mxCell>
                <mxCell id="iBepl6hOdqwXm7L_ZBVs-69" value="attention calculate" style="rounded=1;whiteSpace=wrap;html=1;" parent="1" vertex="1">
                    <mxGeometry x="3589" y="-197" width="155" height="25" as="geometry"/>
                </mxCell>
                <mxCell id="iBepl6hOdqwXm7L_ZBVs-118" style="edgeStyle=none;html=1;exitX=0.5;exitY=1;exitDx=0;exitDy=0;entryX=0.5;entryY=0;entryDx=0;entryDy=0;" parent="1" source="iBepl6hOdqwXm7L_ZBVs-70" target="iBepl6hOdqwXm7L_ZBVs-117" edge="1">
                    <mxGeometry relative="1" as="geometry"/>
                </mxCell>
                <mxCell id="iBepl6hOdqwXm7L_ZBVs-70" value="attn_output: torch.Size([num_imp_token, 4096])" style="text;whiteSpace=wrap;align=center;verticalAlign=middle;" parent="1" vertex="1">
                    <mxGeometry x="3523.84" y="-138" width="285.31" height="30" as="geometry"/>
                </mxCell>
                <mxCell id="iBepl6hOdqwXm7L_ZBVs-71" value="" style="shape=curlyBracket;whiteSpace=wrap;html=1;rounded=1;labelPosition=left;verticalLabelPosition=middle;align=right;verticalAlign=middle;" parent="1" vertex="1">
                    <mxGeometry x="3252" y="-496.75" width="20" height="46" as="geometry"/>
                </mxCell>
                <mxCell id="iBepl6hOdqwXm7L_ZBVs-72" value="get qkv" style="text;html=1;align=center;verticalAlign=middle;resizable=0;points=[];autosize=1;strokeColor=none;fillColor=none;" parent="1" vertex="1">
                    <mxGeometry x="3195" y="-486.75" width="57" height="26" as="geometry"/>
                </mxCell>
                <mxCell id="iBepl6hOdqwXm7L_ZBVs-73" value="" style="shape=curlyBracket;whiteSpace=wrap;html=1;rounded=1;labelPosition=left;verticalLabelPosition=middle;align=right;verticalAlign=middle;" parent="1" vertex="1">
                    <mxGeometry x="3284" y="-442.75" width="20" height="46" as="geometry"/>
                </mxCell>
                <mxCell id="iBepl6hOdqwXm7L_ZBVs-74" value="qkv spilt" style="text;html=1;align=center;verticalAlign=middle;resizable=0;points=[];autosize=1;strokeColor=none;fillColor=none;" parent="1" vertex="1">
                    <mxGeometry x="3225" y="-432.75" width="61" height="26" as="geometry"/>
                </mxCell>
                <mxCell id="iBepl6hOdqwXm7L_ZBVs-79" value="" style="shape=ext;double=1;rounded=0;whiteSpace=wrap;html=1;" parent="1" vertex="1">
                    <mxGeometry x="3589" y="-640" width="322" height="82" as="geometry"/>
                </mxCell>
                <mxCell id="iBepl6hOdqwXm7L_ZBVs-80" value="4096 : num_head ( 32 )&amp;nbsp;* head_size ( 128 )" style="text;html=1;align=center;verticalAlign=middle;resizable=0;points=[];autosize=1;strokeColor=none;fillColor=none;" parent="1" vertex="1">
                    <mxGeometry x="3640" y="-630" width="250" height="30" as="geometry"/>
                </mxCell>
                <mxCell id="iBepl6hOdqwXm7L_ZBVs-81" value="1024 : num_kv_head ( 8 )&amp;nbsp;* head_size ( 128 )" style="text;html=1;align=center;verticalAlign=middle;resizable=0;points=[];autosize=1;strokeColor=none;fillColor=none;" parent="1" vertex="1">
                    <mxGeometry x="3640" y="-600" width="260" height="30" as="geometry"/>
                </mxCell>
                <mxCell id="iBepl6hOdqwXm7L_ZBVs-82" value="GQA:" style="text;html=1;align=center;verticalAlign=middle;resizable=0;points=[];autosize=1;strokeColor=none;fillColor=none;" parent="1" vertex="1">
                    <mxGeometry x="3597" y="-615" width="50" height="30" as="geometry"/>
                </mxCell>
                <mxCell id="iBepl6hOdqwXm7L_ZBVs-83" value="[ k , v ]" style="rounded=0;whiteSpace=wrap;html=1;" parent="1" vertex="1">
                    <mxGeometry x="2338" y="-663" width="151" height="23" as="geometry"/>
                </mxCell>
                <mxCell id="iBepl6hOdqwXm7L_ZBVs-84" value="[ k , v ]" style="rounded=0;whiteSpace=wrap;html=1;" parent="1" vertex="1">
                    <mxGeometry x="2338" y="-640" width="151" height="23" as="geometry"/>
                </mxCell>
                <mxCell id="iBepl6hOdqwXm7L_ZBVs-85" value="..." style="rounded=0;whiteSpace=wrap;html=1;" parent="1" vertex="1">
                    <mxGeometry x="2338" y="-617" width="151" height="23" as="geometry"/>
                </mxCell>
                <mxCell id="iBepl6hOdqwXm7L_ZBVs-86" value="[ k , v ]" style="rounded=0;whiteSpace=wrap;html=1;" parent="1" vertex="1">
                    <mxGeometry x="2338" y="-594" width="151" height="23" as="geometry"/>
                </mxCell>
                <mxCell id="iBepl6hOdqwXm7L_ZBVs-87" value="" style="shape=curlyBracket;whiteSpace=wrap;html=1;rounded=1;labelPosition=left;verticalLabelPosition=middle;align=right;verticalAlign=middle;" parent="1" vertex="1">
                    <mxGeometry x="2308" y="-651.5" width="20" height="71.5" as="geometry"/>
                </mxCell>
                <mxCell id="iBepl6hOdqwXm7L_ZBVs-88" value="32 layers" style="text;html=1;align=center;verticalAlign=middle;resizable=0;points=[];autosize=1;strokeColor=none;fillColor=none;" parent="1" vertex="1">
                    <mxGeometry x="2246" y="-628.75" width="67" height="26" as="geometry"/>
                </mxCell>
                <mxCell id="iBepl6hOdqwXm7L_ZBVs-89" value="eg. one item" style="shape=process;whiteSpace=wrap;html=1;backgroundOutline=1;" parent="1" vertex="1">
                    <mxGeometry x="2341" y="-709" width="102" height="22" as="geometry"/>
                </mxCell>
                <mxCell id="iBepl6hOdqwXm7L_ZBVs-90" value="[ k , v ]" style="rounded=0;whiteSpace=wrap;html=1;fillColor=#ffe6cc;strokeColor=#d79b00;" parent="1" vertex="1">
                    <mxGeometry x="2748" y="-992" width="151" height="23" as="geometry"/>
                </mxCell>
                <mxCell id="iBepl6hOdqwXm7L_ZBVs-91" value="[ k , v ]" style="rounded=0;whiteSpace=wrap;html=1;fillColor=#ffe6cc;strokeColor=#d79b00;" parent="1" vertex="1">
                    <mxGeometry x="2748" y="-969" width="151" height="23" as="geometry"/>
                </mxCell>
                <mxCell id="iBepl6hOdqwXm7L_ZBVs-92" value="..." style="rounded=0;whiteSpace=wrap;html=1;fillColor=#ffe6cc;strokeColor=#d79b00;" parent="1" vertex="1">
                    <mxGeometry x="2748" y="-946" width="151" height="23" as="geometry"/>
                </mxCell>
                <mxCell id="iBepl6hOdqwXm7L_ZBVs-93" value="[ k , v ]" style="rounded=0;whiteSpace=wrap;html=1;fillColor=#ffe6cc;strokeColor=#d79b00;" parent="1" vertex="1">
                    <mxGeometry x="2748" y="-923" width="151" height="23" as="geometry"/>
                </mxCell>
                <mxCell id="iBepl6hOdqwXm7L_ZBVs-98" value="[ k , v ]" style="rounded=0;whiteSpace=wrap;html=1;fillColor=#ffe6cc;strokeColor=#d79b00;" parent="1" vertex="1">
                    <mxGeometry x="2899" y="-992" width="151" height="23" as="geometry"/>
                </mxCell>
                <mxCell id="iBepl6hOdqwXm7L_ZBVs-99" value="[ k , v ]" style="rounded=0;whiteSpace=wrap;html=1;fillColor=#ffe6cc;strokeColor=#d79b00;" parent="1" vertex="1">
                    <mxGeometry x="2899" y="-969" width="151" height="23" as="geometry"/>
                </mxCell>
                <mxCell id="iBepl6hOdqwXm7L_ZBVs-100" value="..." style="rounded=0;whiteSpace=wrap;html=1;fillColor=#ffe6cc;strokeColor=#d79b00;" parent="1" vertex="1">
                    <mxGeometry x="2899" y="-946" width="151" height="23" as="geometry"/>
                </mxCell>
                <mxCell id="iBepl6hOdqwXm7L_ZBVs-101" value="[ k , v ]" style="rounded=0;whiteSpace=wrap;html=1;fillColor=#ffe6cc;strokeColor=#d79b00;" parent="1" vertex="1">
                    <mxGeometry x="2899" y="-923" width="151" height="23" as="geometry"/>
                </mxCell>
                <mxCell id="iBepl6hOdqwXm7L_ZBVs-102" value="candidate1" style="shape=process;whiteSpace=wrap;html=1;backgroundOutline=1;" parent="1" vertex="1">
                    <mxGeometry x="2778" y="-1029" width="102" height="22" as="geometry"/>
                </mxCell>
                <mxCell id="iBepl6hOdqwXm7L_ZBVs-103" value="candidate2" style="shape=process;whiteSpace=wrap;html=1;backgroundOutline=1;" parent="1" vertex="1">
                    <mxGeometry x="2923.5" y="-1029" width="102" height="22" as="geometry"/>
                </mxCell>
                <mxCell id="iBepl6hOdqwXm7L_ZBVs-104" value="..." style="text;html=1;align=center;verticalAlign=middle;resizable=0;points=[];autosize=1;strokeColor=none;fillColor=none;" parent="1" vertex="1">
                    <mxGeometry x="3049" y="-962" width="28" height="26" as="geometry"/>
                </mxCell>
                <mxCell id="iBepl6hOdqwXm7L_ZBVs-105" value="[ k , v ]" style="rounded=0;whiteSpace=wrap;html=1;" parent="1" vertex="1">
                    <mxGeometry x="2597" y="-992" width="151" height="23" as="geometry"/>
                </mxCell>
                <mxCell id="iBepl6hOdqwXm7L_ZBVs-106" value="[ k , v ]" style="rounded=0;whiteSpace=wrap;html=1;" parent="1" vertex="1">
                    <mxGeometry x="2597" y="-969" width="151" height="23" as="geometry"/>
                </mxCell>
                <mxCell id="iBepl6hOdqwXm7L_ZBVs-107" value="..." style="rounded=0;whiteSpace=wrap;html=1;" parent="1" vertex="1">
                    <mxGeometry x="2597" y="-946" width="151" height="23" as="geometry"/>
                </mxCell>
                <mxCell id="iBepl6hOdqwXm7L_ZBVs-108" value="[ k , v ]" style="rounded=0;whiteSpace=wrap;html=1;" parent="1" vertex="1">
                    <mxGeometry x="2597" y="-923" width="151" height="23" as="geometry"/>
                </mxCell>
                <mxCell id="iBepl6hOdqwXm7L_ZBVs-109" value="prefix" style="shape=process;whiteSpace=wrap;html=1;backgroundOutline=1;" parent="1" vertex="1">
                    <mxGeometry x="2627" y="-1029" width="102" height="22" as="geometry"/>
                </mxCell>
                <mxCell id="iBepl6hOdqwXm7L_ZBVs-110" value="" style="shape=curlyBracket;whiteSpace=wrap;html=1;rounded=1;labelPosition=left;verticalLabelPosition=middle;align=right;verticalAlign=middle;" parent="1" vertex="1">
                    <mxGeometry x="2565" y="-980" width="20" height="71.5" as="geometry"/>
                </mxCell>
                <mxCell id="iBepl6hOdqwXm7L_ZBVs-111" value="32 layers" style="text;html=1;align=center;verticalAlign=middle;resizable=0;points=[];autosize=1;strokeColor=none;fillColor=none;" parent="1" vertex="1">
                    <mxGeometry x="2503" y="-957.25" width="67" height="26" as="geometry"/>
                </mxCell>
                <mxCell id="iBepl6hOdqwXm7L_ZBVs-112" value="[ k , v ]" style="rounded=0;whiteSpace=wrap;html=1;fillColor=#ffe6cc;strokeColor=#d79b00;" parent="1" vertex="1">
                    <mxGeometry x="3076" y="-992" width="80" height="23" as="geometry"/>
                </mxCell>
                <mxCell id="iBepl6hOdqwXm7L_ZBVs-113" value="[ k , v ]" style="rounded=0;whiteSpace=wrap;html=1;fillColor=#ffe6cc;strokeColor=#d79b00;" parent="1" vertex="1">
                    <mxGeometry x="3076" y="-969" width="80" height="23" as="geometry"/>
                </mxCell>
                <mxCell id="iBepl6hOdqwXm7L_ZBVs-114" value="..." style="rounded=0;whiteSpace=wrap;html=1;fillColor=#ffe6cc;strokeColor=#d79b00;" parent="1" vertex="1">
                    <mxGeometry x="3076" y="-946" width="80" height="23" as="geometry"/>
                </mxCell>
                <mxCell id="iBepl6hOdqwXm7L_ZBVs-115" value="[ k , v ]" style="rounded=0;whiteSpace=wrap;html=1;fillColor=#ffe6cc;strokeColor=#d79b00;" parent="1" vertex="1">
                    <mxGeometry x="3076" y="-923" width="80" height="23" as="geometry"/>
                </mxCell>
                <mxCell id="iBepl6hOdqwXm7L_ZBVs-116" value="query" style="shape=process;whiteSpace=wrap;html=1;backgroundOutline=1;" parent="1" vertex="1">
                    <mxGeometry x="3078.5" y="-1029" width="75" height="21" as="geometry"/>
                </mxCell>
                <mxCell id="iBepl6hOdqwXm7L_ZBVs-119" style="edgeStyle=none;html=1;exitX=0.5;exitY=1;exitDx=0;exitDy=0;entryX=0.5;entryY=0;entryDx=0;entryDy=0;" parent="1" source="iBepl6hOdqwXm7L_ZBVs-117" target="iBepl6hOdqwXm7L_ZBVs-57" edge="1">
                    <mxGeometry relative="1" as="geometry">
                        <mxPoint x="3425" y="-545" as="targetPoint"/>
                        <Array as="points">
                            <mxPoint x="3667" y="-27"/>
                            <mxPoint x="3162" y="-35"/>
                            <mxPoint x="3160" y="-587"/>
                            <mxPoint x="3432" y="-587"/>
                        </Array>
                    </mxGeometry>
                </mxCell>
                <mxCell id="iBepl6hOdqwXm7L_ZBVs-117" value="mlp" style="rounded=1;whiteSpace=wrap;html=1;" parent="1" vertex="1">
                    <mxGeometry x="3588.25" y="-86" width="155" height="25" as="geometry"/>
                </mxCell>
                <mxCell id="iBepl6hOdqwXm7L_ZBVs-122" style="edgeStyle=none;html=1;exitX=0.5;exitY=1;exitDx=0;exitDy=0;entryX=0.5;entryY=0;entryDx=0;entryDy=0;" parent="1" source="iBepl6hOdqwXm7L_ZBVs-120" target="iBepl6hOdqwXm7L_ZBVs-67" edge="1">
                    <mxGeometry relative="1" as="geometry"/>
                </mxCell>
                <mxCell id="iBepl6hOdqwXm7L_ZBVs-120" value="k: torch.Size([num_imp_token, 1024])" style="text;whiteSpace=wrap;align=center;verticalAlign=middle;fontStyle=1" parent="1" vertex="1">
                    <mxGeometry x="3553.25" y="-331.5" width="225" height="24" as="geometry"/>
                </mxCell>
                <mxCell id="iBepl6hOdqwXm7L_ZBVs-123" value="v: torch.Size([prompt_len, 1024])" style="text;whiteSpace=wrap;align=center;verticalAlign=middle;fontStyle=1" parent="1" vertex="1">
                    <mxGeometry x="3793" y="-334" width="233" height="24" as="geometry"/>
                </mxCell>
                <mxCell id="iBepl6hOdqwXm7L_ZBVs-128" style="edgeStyle=entityRelationEdgeStyle;html=1;startArrow=none;endArrow=none;segment=10;curved=1;sourcePerimeterSpacing=0;targetPerimeterSpacing=0;" parent="1" source="iBepl6hOdqwXm7L_ZBVs-125" edge="1">
                    <mxGeometry relative="1" as="geometry">
                        <mxPoint x="3663.666666666667" y="-354" as="targetPoint"/>
                    </mxGeometry>
                </mxCell>
                <mxCell id="iBepl6hOdqwXm7L_ZBVs-125" value="rope" style="whiteSpace=wrap;html=1;rounded=1;arcSize=50;align=center;verticalAlign=middle;strokeWidth=1;autosize=1;spacing=4;treeFolding=1;treeMoving=1;newEdgeStyle={&quot;edgeStyle&quot;:&quot;entityRelationEdgeStyle&quot;,&quot;startArrow&quot;:&quot;none&quot;,&quot;endArrow&quot;:&quot;none&quot;,&quot;segment&quot;:10,&quot;curved&quot;:1,&quot;sourcePerimeterSpacing&quot;:0,&quot;targetPerimeterSpacing&quot;:0};fillColor=#dae8fc;strokeColor=#6c8ebf;" parent="1" vertex="1">
                    <mxGeometry x="3504" y="-366" width="63" height="30" as="geometry"/>
                </mxCell>
                <mxCell id="iBepl6hOdqwXm7L_ZBVs-126" value="" style="edgeStyle=entityRelationEdgeStyle;startArrow=none;endArrow=none;segment=10;curved=1;sourcePerimeterSpacing=0;targetPerimeterSpacing=0;" parent="1" target="iBepl6hOdqwXm7L_ZBVs-125" edge="1">
                    <mxGeometry relative="1" as="geometry">
                        <mxPoint x="3435" y="-327" as="sourcePoint"/>
                    </mxGeometry>
                </mxCell>
                <mxCell id="iBepl6hOdqwXm7L_ZBVs-131" style="edgeStyle=entityRelationEdgeStyle;html=1;startArrow=none;endArrow=none;segment=10;curved=1;sourcePerimeterSpacing=0;targetPerimeterSpacing=0;exitX=1;exitY=0.5;exitDx=0;exitDy=0;" parent="1" source="iBepl6hOdqwXm7L_ZBVs-129" edge="1">
                    <mxGeometry relative="1" as="geometry">
                        <mxPoint x="3909.5" y="-358" as="targetPoint"/>
                    </mxGeometry>
                </mxCell>
                <mxCell id="iBepl6hOdqwXm7L_ZBVs-129" value="update&lt;div&gt;old_kv&lt;/div&gt;" style="whiteSpace=wrap;html=1;rounded=1;arcSize=50;align=center;verticalAlign=middle;strokeWidth=1;autosize=1;spacing=4;treeFolding=1;treeMoving=1;newEdgeStyle={&quot;edgeStyle&quot;:&quot;entityRelationEdgeStyle&quot;,&quot;startArrow&quot;:&quot;none&quot;,&quot;endArrow&quot;:&quot;none&quot;,&quot;segment&quot;:10,&quot;curved&quot;:1,&quot;sourcePerimeterSpacing&quot;:0,&quot;targetPerimeterSpacing&quot;:0};fillColor=#dae8fc;strokeColor=#6c8ebf;" parent="1" vertex="1">
                    <mxGeometry x="3748" y="-379" width="76" height="45" as="geometry"/>
                </mxCell>
                <mxCell id="iBepl6hOdqwXm7L_ZBVs-130" value="" style="edgeStyle=entityRelationEdgeStyle;startArrow=none;endArrow=none;segment=10;curved=1;sourcePerimeterSpacing=0;targetPerimeterSpacing=0;" parent="1" target="iBepl6hOdqwXm7L_ZBVs-129" edge="1">
                    <mxGeometry relative="1" as="geometry">
                        <mxPoint x="3667" y="-291" as="sourcePoint"/>
                        <Array as="points">
                            <mxPoint x="3732" y="-372.75"/>
                        </Array>
                    </mxGeometry>
                </mxCell>
                <mxCell id="iBepl6hOdqwXm7L_ZBVs-156" value="[ k , v ]" style="rounded=0;whiteSpace=wrap;html=1;" parent="1" vertex="1">
                    <mxGeometry x="2597" y="-848" width="559" height="23" as="geometry"/>
                </mxCell>
                <mxCell id="iBepl6hOdqwXm7L_ZBVs-157" value="[ k , v ]" style="rounded=0;whiteSpace=wrap;html=1;" parent="1" vertex="1">
                    <mxGeometry x="2597" y="-825" width="559" height="23" as="geometry"/>
                </mxCell>
                <mxCell id="iBepl6hOdqwXm7L_ZBVs-158" value="..." style="rounded=0;whiteSpace=wrap;html=1;" parent="1" vertex="1">
                    <mxGeometry x="2597" y="-802" width="559" height="23" as="geometry"/>
                </mxCell>
                <mxCell id="iBepl6hOdqwXm7L_ZBVs-159" value="[ k , v ]" style="rounded=0;whiteSpace=wrap;html=1;" parent="1" vertex="1">
                    <mxGeometry x="2597" y="-778.5" width="559" height="23" as="geometry"/>
                </mxCell>
                <mxCell id="iBepl6hOdqwXm7L_ZBVs-160" value="" style="shape=singleArrow;direction=south;whiteSpace=wrap;html=1;" parent="1" vertex="1">
                    <mxGeometry x="2861" y="-891" width="31" height="34" as="geometry"/>
                </mxCell>
                <mxCell id="j5AqkXcIM9zL5P66sFfx-1" value="候选项目1" style="rounded=1;whiteSpace=wrap;html=1;fillColor=#60a917;strokeColor=#2D7600;fontColor=#ffffff;" parent="1" vertex="1">
                    <mxGeometry x="4585" y="-648.75" width="130" height="30" as="geometry"/>
                </mxCell>
                <mxCell id="j5AqkXcIM9zL5P66sFfx-2" value="候选项目2" style="rounded=1;whiteSpace=wrap;html=1;fillColor=#60a917;strokeColor=#2D7600;fontColor=#ffffff;" parent="1" vertex="1">
                    <mxGeometry x="4585" y="-616" width="129" height="30" as="geometry"/>
                </mxCell>
                <mxCell id="j5AqkXcIM9zL5P66sFfx-3" value="..." style="rounded=1;whiteSpace=wrap;html=1;fillColor=#60a917;strokeColor=#2D7600;fontColor=#ffffff;" parent="1" vertex="1">
                    <mxGeometry x="4585" y="-582" width="130" height="30" as="geometry"/>
                </mxCell>
                <mxCell id="j5AqkXcIM9zL5P66sFfx-4" value="候选项目n" style="rounded=1;whiteSpace=wrap;html=1;fillColor=#60a917;strokeColor=#2D7600;fontColor=#ffffff;" parent="1" vertex="1">
                    <mxGeometry x="4585" y="-548" width="130" height="30" as="geometry"/>
                </mxCell>
                <mxCell id="j5AqkXcIM9zL5P66sFfx-5" value="使用HNSW算法检索" style="text;html=1;align=center;verticalAlign=middle;resizable=0;points=[];autosize=1;strokeColor=none;fillColor=none;" parent="1" vertex="1">
                    <mxGeometry x="4453" y="-598" width="127" height="26" as="geometry"/>
                </mxCell>
                <mxCell id="j5AqkXcIM9zL5P66sFfx-7" value="智能代理1" style="ellipse;shape=cloud;whiteSpace=wrap;html=1;fillColor=#dae8fc;strokeColor=#6c8ebf;" parent="1" vertex="1">
                    <mxGeometry x="4749" y="-674.75" width="120" height="80" as="geometry"/>
                </mxCell>
                <mxCell id="j5AqkXcIM9zL5P66sFfx-8" value="智能代理2" style="ellipse;shape=cloud;whiteSpace=wrap;html=1;fillColor=#dae8fc;strokeColor=#6c8ebf;" parent="1" vertex="1">
                    <mxGeometry x="4753" y="-576.75" width="120" height="80" as="geometry"/>
                </mxCell>
                <mxCell id="j5AqkXcIM9zL5P66sFfx-9" value="推荐结果1" style="rounded=1;whiteSpace=wrap;html=1;fillColor=#008a00;strokeColor=#005700;fontColor=#ffffff;" parent="1" vertex="1">
                    <mxGeometry x="4903" y="-613.87" width="130" height="30" as="geometry"/>
                </mxCell>
                <mxCell id="j5AqkXcIM9zL5P66sFfx-10" value="推荐结果2" style="rounded=1;whiteSpace=wrap;html=1;fillColor=#008a00;strokeColor=#005700;fontColor=#ffffff;" parent="1" vertex="1">
                    <mxGeometry x="4903" y="-581.12" width="129" height="30" as="geometry"/>
                </mxCell>
                <mxCell id="ttIu68DNXvmsdBVbo-tg-2" value="项目1" style="rounded=1;whiteSpace=wrap;html=1;fillColor=#d5e8d4;strokeColor=#82b366;" vertex="1" parent="1">
                    <mxGeometry x="4318" y="-668" width="130" height="30" as="geometry"/>
                </mxCell>
                <mxCell id="ttIu68DNXvmsdBVbo-tg-3" value="项目2" style="rounded=1;whiteSpace=wrap;html=1;fillColor=#d5e8d4;strokeColor=#82b366;" vertex="1" parent="1">
                    <mxGeometry x="4318" y="-635.25" width="129" height="30" as="geometry"/>
                </mxCell>
                <mxCell id="ttIu68DNXvmsdBVbo-tg-4" value="..." style="rounded=1;whiteSpace=wrap;html=1;fillColor=#d5e8d4;strokeColor=#82b366;" vertex="1" parent="1">
                    <mxGeometry x="4318" y="-570.25" width="130" height="30" as="geometry"/>
                </mxCell>
                <mxCell id="ttIu68DNXvmsdBVbo-tg-5" value="项目n" style="rounded=1;whiteSpace=wrap;html=1;fillColor=#d5e8d4;strokeColor=#82b366;" vertex="1" parent="1">
                    <mxGeometry x="4318" y="-537.25" width="130" height="30" as="geometry"/>
                </mxCell>
                <mxCell id="ttIu68DNXvmsdBVbo-tg-6" value="项目3" style="rounded=1;whiteSpace=wrap;html=1;fillColor=#d5e8d4;strokeColor=#82b366;" vertex="1" parent="1">
                    <mxGeometry x="4318" y="-603" width="129" height="30" as="geometry"/>
                </mxCell>
                <mxCell id="ttIu68DNXvmsdBVbo-tg-8" value="用户历史项目1" style="rounded=1;whiteSpace=wrap;html=1;fillColor=#f8cecc;strokeColor=#b85450;" vertex="1" parent="1">
                    <mxGeometry x="4451.5" y="-782" width="130" height="30" as="geometry"/>
                </mxCell>
                <mxCell id="ttIu68DNXvmsdBVbo-tg-9" value="用户历史项目2" style="rounded=1;whiteSpace=wrap;html=1;fillColor=#f8cecc;strokeColor=#b85450;" vertex="1" parent="1">
                    <mxGeometry x="4451.5" y="-748" width="130" height="30" as="geometry"/>
                </mxCell>
                <mxCell id="ttIu68DNXvmsdBVbo-tg-10" value="" style="html=1;shadow=0;dashed=0;align=center;verticalAlign=middle;shape=mxgraph.arrows2.arrow;dy=0.6;dx=40;notch=0;fillColor=#ffe6cc;strokeColor=#d79b00;" vertex="1" parent="1">
                    <mxGeometry x="4320" y="-502.75" width="721" height="70" as="geometry"/>
                </mxCell>
                <mxCell id="ttIu68DNXvmsdBVbo-tg-11" value="" style="html=1;shadow=0;dashed=0;align=center;verticalAlign=middle;shape=mxgraph.arrows2.arrow;dy=0.6;dx=40;direction=south;notch=0;" vertex="1" parent="1">
                    <mxGeometry x="4492" y="-700" width="49" height="94" as="geometry"/>
                </mxCell>
                <mxCell id="ttIu68DNXvmsdBVbo-tg-14" value="用户历史项目1" style="rounded=1;whiteSpace=wrap;html=1;fillColor=#f8cecc;strokeColor=#b85450;" vertex="1" parent="1">
                    <mxGeometry x="4749" y="-861.75" width="130" height="30" as="geometry"/>
                </mxCell>
                <mxCell id="ttIu68DNXvmsdBVbo-tg-15" value="用户历史项目2" style="rounded=1;whiteSpace=wrap;html=1;fillColor=#f8cecc;strokeColor=#b85450;" vertex="1" parent="1">
                    <mxGeometry x="4749" y="-827.75" width="130" height="30" as="geometry"/>
                </mxCell>
                <mxCell id="ttIu68DNXvmsdBVbo-tg-16" value="" style="html=1;shadow=0;dashed=0;align=center;verticalAlign=middle;shape=mxgraph.arrows2.arrow;dy=0.6;dx=40;direction=south;notch=0;" vertex="1" parent="1">
                    <mxGeometry x="4789.5" y="-782" width="49" height="94" as="geometry"/>
                </mxCell>
                <mxCell id="Kkr-paqQB89i5DNPPLYu-6" value="离线阶段" style="shape=process;whiteSpace=wrap;html=1;backgroundOutline=1;" vertex="1" parent="1">
                    <mxGeometry x="4162" y="-271" width="90" height="29.5" as="geometry"/>
                </mxCell>
                <mxCell id="Kkr-paqQB89i5DNPPLYu-13" value="在线推理阶段" style="shape=process;whiteSpace=wrap;html=1;backgroundOutline=1;" vertex="1" parent="1">
                    <mxGeometry x="4143" y="-102" width="119" height="29.5" as="geometry"/>
                </mxCell>
                <mxCell id="Kkr-paqQB89i5DNPPLYu-21" value="" style="group" vertex="1" connectable="0" parent="1">
                    <mxGeometry x="4297" y="-315.13" width="354.5" height="117.75" as="geometry"/>
                </mxCell>
                <mxCell id="Kkr-paqQB89i5DNPPLYu-1" value="项目1" style="rounded=1;whiteSpace=wrap;html=1;fillColor=#d5e8d4;strokeColor=#82b366;" vertex="1" parent="Kkr-paqQB89i5DNPPLYu-21">
                    <mxGeometry width="117.41401273885353" height="21.638591117917308" as="geometry"/>
                </mxCell>
                <mxCell id="Kkr-paqQB89i5DNPPLYu-2" value="项目2" style="rounded=1;whiteSpace=wrap;html=1;fillColor=#d5e8d4;strokeColor=#82b366;" vertex="1" parent="Kkr-paqQB89i5DNPPLYu-21">
                    <mxGeometry y="23.622128637059728" width="116.51082802547772" height="21.638591117917308" as="geometry"/>
                </mxCell>
                <mxCell id="Kkr-paqQB89i5DNPPLYu-3" value="..." style="rounded=1;whiteSpace=wrap;html=1;fillColor=#d5e8d4;strokeColor=#82b366;" vertex="1" parent="Kkr-paqQB89i5DNPPLYu-21">
                    <mxGeometry y="70.50574272588055" width="117.41401273885353" height="21.638591117917308" as="geometry"/>
                </mxCell>
                <mxCell id="Kkr-paqQB89i5DNPPLYu-4" value="项目n" style="rounded=1;whiteSpace=wrap;html=1;fillColor=#d5e8d4;strokeColor=#82b366;" vertex="1" parent="Kkr-paqQB89i5DNPPLYu-21">
                    <mxGeometry y="94.3081929555896" width="117.41401273885353" height="21.638591117917308" as="geometry"/>
                </mxCell>
                <mxCell id="Kkr-paqQB89i5DNPPLYu-5" value="项目3" style="rounded=1;whiteSpace=wrap;html=1;fillColor=#d5e8d4;strokeColor=#82b366;" vertex="1" parent="Kkr-paqQB89i5DNPPLYu-21">
                    <mxGeometry y="46.883614088820835" width="116.51082802547772" height="21.638591117917308" as="geometry"/>
                </mxCell>
                <mxCell id="Kkr-paqQB89i5DNPPLYu-7" value="单独计算KV" style="html=1;shadow=0;dashed=0;align=center;verticalAlign=middle;shape=mxgraph.arrows2.arrow;dy=0.6;dx=40;notch=0;" vertex="1" parent="Kkr-paqQB89i5DNPPLYu-21">
                    <mxGeometry x="133.21974522292993" y="32.45788667687596" width="90.31847133757964" height="50.49004594180705" as="geometry"/>
                </mxCell>
                <mxCell id="Kkr-paqQB89i5DNPPLYu-8" value="KV" style="rounded=1;whiteSpace=wrap;html=1;fillColor=#ffe6cc;strokeColor=#d79b00;" vertex="1" parent="Kkr-paqQB89i5DNPPLYu-21">
                    <mxGeometry x="237.0859872611465" y="1.803215926493109" width="117.41401273885353" height="21.638591117917308" as="geometry"/>
                </mxCell>
                <mxCell id="Kkr-paqQB89i5DNPPLYu-9" value="KV" style="rounded=1;whiteSpace=wrap;html=1;fillColor=#ffe6cc;strokeColor=#d79b00;" vertex="1" parent="Kkr-paqQB89i5DNPPLYu-21">
                    <mxGeometry x="237.0859872611465" y="25.425344563552837" width="116.51082802547772" height="21.638591117917308" as="geometry"/>
                </mxCell>
                <mxCell id="Kkr-paqQB89i5DNPPLYu-10" value="..." style="rounded=1;whiteSpace=wrap;html=1;fillColor=#ffe6cc;strokeColor=#d79b00;" vertex="1" parent="Kkr-paqQB89i5DNPPLYu-21">
                    <mxGeometry x="237.0859872611465" y="72.30895865237366" width="117.41401273885353" height="21.638591117917308" as="geometry"/>
                </mxCell>
                <mxCell id="Kkr-paqQB89i5DNPPLYu-11" value="KV" style="rounded=1;whiteSpace=wrap;html=1;fillColor=#ffe6cc;strokeColor=#d79b00;" vertex="1" parent="Kkr-paqQB89i5DNPPLYu-21">
                    <mxGeometry x="237.0859872611465" y="96.1114088820827" width="117.41401273885353" height="21.638591117917308" as="geometry"/>
                </mxCell>
                <mxCell id="Kkr-paqQB89i5DNPPLYu-12" value="KV" style="rounded=1;whiteSpace=wrap;html=1;fillColor=#ffe6cc;strokeColor=#d79b00;" vertex="1" parent="Kkr-paqQB89i5DNPPLYu-21">
                    <mxGeometry x="237.0859872611465" y="48.686830015313944" width="116.51082802547772" height="21.638591117917308" as="geometry"/>
                </mxCell>
                <mxCell id="Kkr-paqQB89i5DNPPLYu-22" value="" style="group" vertex="1" connectable="0" parent="1">
                    <mxGeometry x="4293" y="-157" width="249" height="156" as="geometry"/>
                </mxCell>
                <mxCell id="Kkr-paqQB89i5DNPPLYu-14" value="系统提示" style="rounded=1;whiteSpace=wrap;html=1;fillColor=#d5e8d4;strokeColor=#82b366;" vertex="1" parent="Kkr-paqQB89i5DNPPLYu-22">
                    <mxGeometry x="97.73831775700936" width="151.26168224299067" height="23.075" as="geometry"/>
                </mxCell>
                <mxCell id="Kkr-paqQB89i5DNPPLYu-15" value="历史项目" style="rounded=1;whiteSpace=wrap;html=1;fillColor=#d5e8d4;strokeColor=#82b366;" vertex="1" parent="Kkr-paqQB89i5DNPPLYu-22">
                    <mxGeometry x="97.15654205607477" y="26.975" width="151.26168224299067" height="22.425" as="geometry"/>
                </mxCell>
                <mxCell id="Kkr-paqQB89i5DNPPLYu-16" value="候选项目" style="rounded=1;whiteSpace=wrap;html=1;fillColor=#fff2cc;strokeColor=#d6b656;" vertex="1" parent="Kkr-paqQB89i5DNPPLYu-22">
                    <mxGeometry x="96.5747663551402" y="53.300000000000004" width="151.26168224299067" height="74.1" as="geometry"/>
                </mxCell>
                <mxCell id="Kkr-paqQB89i5DNPPLYu-17" value="限定查询" style="rounded=1;whiteSpace=wrap;html=1;fillColor=#d5e8d4;strokeColor=#82b366;" vertex="1" parent="Kkr-paqQB89i5DNPPLYu-22">
                    <mxGeometry x="97.73831775700936" y="131.3" width="151.26168224299067" height="21.775" as="geometry"/>
                </mxCell>
                <mxCell id="Kkr-paqQB89i5DNPPLYu-19" value="" style="shape=curlyBracket;whiteSpace=wrap;html=1;rounded=1;labelPosition=left;verticalLabelPosition=middle;align=right;verticalAlign=middle;" vertex="1" parent="Kkr-paqQB89i5DNPPLYu-22">
                    <mxGeometry x="62.83177570093459" width="23.27102803738318" height="156" as="geometry"/>
                </mxCell>
                <mxCell id="Kkr-paqQB89i5DNPPLYu-20" value="完整&lt;div&gt;提示词&lt;/div&gt;" style="text;html=1;align=center;verticalAlign=middle;resizable=0;points=[];autosize=1;strokeColor=none;fillColor=none;" vertex="1" parent="Kkr-paqQB89i5DNPPLYu-22">
                    <mxGeometry y="51.35" width="54" height="41" as="geometry"/>
                </mxCell>
            </root>
        </mxGraphModel>
    </diagram>
</mxfile>